<?xml version="1.0" encoding="utf-8" standalone="no"?>
<!DOCTYPE svg PUBLIC "-//W3C//DTD SVG 1.1//EN"
  "http://www.w3.org/Graphics/SVG/1.1/DTD/svg11.dtd">
<!-- Created with matplotlib (http://matplotlib.org/) -->
<svg height="301pt" version="1.1" viewBox="0 0 713 301" width="713pt" xmlns="http://www.w3.org/2000/svg" xmlns:xlink="http://www.w3.org/1999/xlink">
 <defs>
  <style type="text/css">
*{stroke-linecap:butt;stroke-linejoin:round;}
  </style>
 </defs>
 <g id="figure_1">
  <g id="patch_1">
   <path d="M 0 301.125905 
L 713.5875 301.125905 
L 713.5875 0 
L 0 0 
z
" style="fill:#ffffff;"/>
  </g>
  <g id="axes_1">
   <g id="patch_2">
    <path d="M 33.2875 97.297435 
L 148.735776 97.297435 
L 148.735776 22.318125 
L 33.2875 22.318125 
z
" style="fill:#ffffff;"/>
   </g>
   <g id="matplotlib.axis_1">
    <g id="xtick_1">
     <g id="line2d_1">
      <defs>
       <path d="M 0 0 
L 0 3.5 
" id="m174aedfc86" style="stroke:#000000;stroke-width:0.8;"/>
      </defs>
      <g>
       <use style="stroke:#000000;stroke-width:0.8;" x="51.654271" xlink:href="#m174aedfc86" y="97.297435"/>
      </g>
     </g>
     <g id="text_1">
      <!-- 1990 -->
      <defs>
       <path d="M 12.40625 8.296875 
L 28.515625 8.296875 
L 28.515625 63.921875 
L 10.984375 60.40625 
L 10.984375 69.390625 
L 28.421875 72.90625 
L 38.28125 72.90625 
L 38.28125 8.296875 
L 54.390625 8.296875 
L 54.390625 0 
L 12.40625 0 
z
" id="DejaVuSans-31"/>
       <path d="M 10.984375 1.515625 
L 10.984375 10.5 
Q 14.703125 8.734375 18.5 7.8125 
Q 22.3125 6.890625 25.984375 6.890625 
Q 35.75 6.890625 40.890625 13.453125 
Q 46.046875 20.015625 46.78125 33.40625 
Q 43.953125 29.203125 39.59375 26.953125 
Q 35.25 24.703125 29.984375 24.703125 
Q 19.046875 24.703125 12.671875 31.3125 
Q 6.296875 37.9375 6.296875 49.421875 
Q 6.296875 60.640625 12.9375 67.421875 
Q 19.578125 74.21875 30.609375 74.21875 
Q 43.265625 74.21875 49.921875 64.515625 
Q 56.59375 54.828125 56.59375 36.375 
Q 56.59375 19.140625 48.40625 8.859375 
Q 40.234375 -1.421875 26.421875 -1.421875 
Q 22.703125 -1.421875 18.890625 -0.6875 
Q 15.09375 0.046875 10.984375 1.515625 
z
M 30.609375 32.421875 
Q 37.25 32.421875 41.125 36.953125 
Q 45.015625 41.5 45.015625 49.421875 
Q 45.015625 57.28125 41.125 61.84375 
Q 37.25 66.40625 30.609375 66.40625 
Q 23.96875 66.40625 20.09375 61.84375 
Q 16.21875 57.28125 16.21875 49.421875 
Q 16.21875 41.5 20.09375 36.953125 
Q 23.96875 32.421875 30.609375 32.421875 
z
" id="DejaVuSans-39"/>
       <path d="M 31.78125 66.40625 
Q 24.171875 66.40625 20.328125 58.90625 
Q 16.5 51.421875 16.5 36.375 
Q 16.5 21.390625 20.328125 13.890625 
Q 24.171875 6.390625 31.78125 6.390625 
Q 39.453125 6.390625 43.28125 13.890625 
Q 47.125 21.390625 47.125 36.375 
Q 47.125 51.421875 43.28125 58.90625 
Q 39.453125 66.40625 31.78125 66.40625 
z
M 31.78125 74.21875 
Q 44.046875 74.21875 50.515625 64.515625 
Q 56.984375 54.828125 56.984375 36.375 
Q 56.984375 17.96875 50.515625 8.265625 
Q 44.046875 -1.421875 31.78125 -1.421875 
Q 19.53125 -1.421875 13.0625 8.265625 
Q 6.59375 17.96875 6.59375 36.375 
Q 6.59375 54.828125 13.0625 64.515625 
Q 19.53125 74.21875 31.78125 74.21875 
z
" id="DejaVuSans-30"/>
      </defs>
      <g transform="translate(38.929271 111.895873)scale(0.1 -0.1)">
       <use xlink:href="#DejaVuSans-31"/>
       <use x="63.623047" xlink:href="#DejaVuSans-39"/>
       <use x="127.246094" xlink:href="#DejaVuSans-39"/>
       <use x="190.869141" xlink:href="#DejaVuSans-30"/>
      </g>
     </g>
    </g>
    <g id="xtick_2">
     <g id="line2d_2">
      <g>
       <use style="stroke:#000000;stroke-width:0.8;" x="84.452077" xlink:href="#m174aedfc86" y="97.297435"/>
      </g>
     </g>
     <g id="text_2">
      <!-- 2000 -->
      <defs>
       <path d="M 19.1875 8.296875 
L 53.609375 8.296875 
L 53.609375 0 
L 7.328125 0 
L 7.328125 8.296875 
Q 12.9375 14.109375 22.625 23.890625 
Q 32.328125 33.6875 34.8125 36.53125 
Q 39.546875 41.84375 41.421875 45.53125 
Q 43.3125 49.21875 43.3125 52.78125 
Q 43.3125 58.59375 39.234375 62.25 
Q 35.15625 65.921875 28.609375 65.921875 
Q 23.96875 65.921875 18.8125 64.3125 
Q 13.671875 62.703125 7.8125 59.421875 
L 7.8125 69.390625 
Q 13.765625 71.78125 18.9375 73 
Q 24.125 74.21875 28.421875 74.21875 
Q 39.75 74.21875 46.484375 68.546875 
Q 53.21875 62.890625 53.21875 53.421875 
Q 53.21875 48.921875 51.53125 44.890625 
Q 49.859375 40.875 45.40625 35.40625 
Q 44.1875 33.984375 37.640625 27.21875 
Q 31.109375 20.453125 19.1875 8.296875 
z
" id="DejaVuSans-32"/>
      </defs>
      <g transform="translate(71.727077 111.895873)scale(0.1 -0.1)">
       <use xlink:href="#DejaVuSans-32"/>
       <use x="63.623047" xlink:href="#DejaVuSans-30"/>
       <use x="127.246094" xlink:href="#DejaVuSans-30"/>
       <use x="190.869141" xlink:href="#DejaVuSans-30"/>
      </g>
     </g>
    </g>
    <g id="xtick_3">
     <g id="line2d_3">
      <g>
       <use style="stroke:#000000;stroke-width:0.8;" x="117.249882" xlink:href="#m174aedfc86" y="97.297435"/>
      </g>
     </g>
     <g id="text_3">
      <!-- 2010 -->
      <g transform="translate(104.524882 111.895873)scale(0.1 -0.1)">
       <use xlink:href="#DejaVuSans-32"/>
       <use x="63.623047" xlink:href="#DejaVuSans-30"/>
       <use x="127.246094" xlink:href="#DejaVuSans-31"/>
       <use x="190.869141" xlink:href="#DejaVuSans-30"/>
      </g>
     </g>
    </g>
   </g>
   <g id="matplotlib.axis_2">
    <g id="ytick_1">
     <g id="line2d_4">
      <defs>
       <path d="M 0 0 
L -3.5 0 
" id="md1b2d62028" style="stroke:#000000;stroke-width:0.8;"/>
      </defs>
      <g>
       <use style="stroke:#000000;stroke-width:0.8;" x="33.2875" xlink:href="#md1b2d62028" y="93.966919"/>
      </g>
     </g>
     <g id="text_4">
      <!-- 0 -->
      <g transform="translate(19.925 97.766138)scale(0.1 -0.1)">
       <use xlink:href="#DejaVuSans-30"/>
      </g>
     </g>
    </g>
    <g id="ytick_2">
     <g id="line2d_5">
      <g>
       <use style="stroke:#000000;stroke-width:0.8;" x="33.2875" xlink:href="#md1b2d62028" y="55.149716"/>
      </g>
     </g>
     <g id="text_5">
      <!-- 500 -->
      <defs>
       <path d="M 10.796875 72.90625 
L 49.515625 72.90625 
L 49.515625 64.59375 
L 19.828125 64.59375 
L 19.828125 46.734375 
Q 21.96875 47.46875 24.109375 47.828125 
Q 26.265625 48.1875 28.421875 48.1875 
Q 40.625 48.1875 47.75 41.5 
Q 54.890625 34.8125 54.890625 23.390625 
Q 54.890625 11.625 47.5625 5.09375 
Q 40.234375 -1.421875 26.90625 -1.421875 
Q 22.3125 -1.421875 17.546875 -0.640625 
Q 12.796875 0.140625 7.71875 1.703125 
L 7.71875 11.625 
Q 12.109375 9.234375 16.796875 8.0625 
Q 21.484375 6.890625 26.703125 6.890625 
Q 35.15625 6.890625 40.078125 11.328125 
Q 45.015625 15.765625 45.015625 23.390625 
Q 45.015625 31 40.078125 35.4375 
Q 35.15625 39.890625 26.703125 39.890625 
Q 22.75 39.890625 18.8125 39.015625 
Q 14.890625 38.140625 10.796875 36.28125 
z
" id="DejaVuSans-35"/>
      </defs>
      <g transform="translate(7.2 58.948934)scale(0.1 -0.1)">
       <use xlink:href="#DejaVuSans-35"/>
       <use x="63.623047" xlink:href="#DejaVuSans-30"/>
       <use x="127.246094" xlink:href="#DejaVuSans-30"/>
      </g>
     </g>
    </g>
   </g>
   <g id="line2d_6">
    <path clip-path="url(#pf97d5ab24f)" d="M 84.452077 93.889285 
L 100.85098 93.889285 
L 120.529663 93.81165 
L 123.809444 93.889285 
L 127.089224 93.734016 
L 130.369005 93.26821 
L 133.648785 92.880038 
L 136.928566 93.035306 
L 140.208346 92.336597 
L 143.488127 91.172081 
" style="fill:none;stroke:#1f77b4;stroke-linecap:square;stroke-width:1.5;"/>
   </g>
   <g id="patch_3">
    <path d="M 33.2875 97.297435 
L 33.2875 22.318125 
" style="fill:none;stroke:#000000;stroke-linecap:square;stroke-linejoin:miter;stroke-width:0.8;"/>
   </g>
   <g id="patch_4">
    <path d="M 148.735776 97.297435 
L 148.735776 22.318125 
" style="fill:none;stroke:#000000;stroke-linecap:square;stroke-linejoin:miter;stroke-width:0.8;"/>
   </g>
   <g id="patch_5">
    <path d="M 33.2875 97.297435 
L 148.735776 97.297435 
" style="fill:none;stroke:#000000;stroke-linecap:square;stroke-linejoin:miter;stroke-width:0.8;"/>
   </g>
   <g id="patch_6">
    <path d="M 33.2875 22.318125 
L 148.735776 22.318125 
" style="fill:none;stroke:#000000;stroke-linecap:square;stroke-linejoin:miter;stroke-width:0.8;"/>
   </g>
   <g id="text_6">
    <!-- Shared Mobility -->
    <defs>
     <path d="M 53.515625 70.515625 
L 53.515625 60.890625 
Q 47.90625 63.578125 42.921875 64.890625 
Q 37.9375 66.21875 33.296875 66.21875 
Q 25.25 66.21875 20.875 63.09375 
Q 16.5 59.96875 16.5 54.203125 
Q 16.5 49.359375 19.40625 46.890625 
Q 22.3125 44.4375 30.421875 42.921875 
L 36.375 41.703125 
Q 47.40625 39.59375 52.65625 34.296875 
Q 57.90625 29 57.90625 20.125 
Q 57.90625 9.515625 50.796875 4.046875 
Q 43.703125 -1.421875 29.984375 -1.421875 
Q 24.8125 -1.421875 18.96875 -0.25 
Q 13.140625 0.921875 6.890625 3.21875 
L 6.890625 13.375 
Q 12.890625 10.015625 18.65625 8.296875 
Q 24.421875 6.59375 29.984375 6.59375 
Q 38.421875 6.59375 43.015625 9.90625 
Q 47.609375 13.234375 47.609375 19.390625 
Q 47.609375 24.75 44.3125 27.78125 
Q 41.015625 30.8125 33.5 32.328125 
L 27.484375 33.5 
Q 16.453125 35.6875 11.515625 40.375 
Q 6.59375 45.0625 6.59375 53.421875 
Q 6.59375 63.09375 13.40625 68.65625 
Q 20.21875 74.21875 32.171875 74.21875 
Q 37.3125 74.21875 42.625 73.28125 
Q 47.953125 72.359375 53.515625 70.515625 
z
" id="DejaVuSans-53"/>
     <path d="M 54.890625 33.015625 
L 54.890625 0 
L 45.90625 0 
L 45.90625 32.71875 
Q 45.90625 40.484375 42.875 44.328125 
Q 39.84375 48.1875 33.796875 48.1875 
Q 26.515625 48.1875 22.3125 43.546875 
Q 18.109375 38.921875 18.109375 30.90625 
L 18.109375 0 
L 9.078125 0 
L 9.078125 75.984375 
L 18.109375 75.984375 
L 18.109375 46.1875 
Q 21.34375 51.125 25.703125 53.5625 
Q 30.078125 56 35.796875 56 
Q 45.21875 56 50.046875 50.171875 
Q 54.890625 44.34375 54.890625 33.015625 
z
" id="DejaVuSans-68"/>
     <path d="M 34.28125 27.484375 
Q 23.390625 27.484375 19.1875 25 
Q 14.984375 22.515625 14.984375 16.5 
Q 14.984375 11.71875 18.140625 8.90625 
Q 21.296875 6.109375 26.703125 6.109375 
Q 34.1875 6.109375 38.703125 11.40625 
Q 43.21875 16.703125 43.21875 25.484375 
L 43.21875 27.484375 
z
M 52.203125 31.203125 
L 52.203125 0 
L 43.21875 0 
L 43.21875 8.296875 
Q 40.140625 3.328125 35.546875 0.953125 
Q 30.953125 -1.421875 24.3125 -1.421875 
Q 15.921875 -1.421875 10.953125 3.296875 
Q 6 8.015625 6 15.921875 
Q 6 25.140625 12.171875 29.828125 
Q 18.359375 34.515625 30.609375 34.515625 
L 43.21875 34.515625 
L 43.21875 35.40625 
Q 43.21875 41.609375 39.140625 45 
Q 35.0625 48.390625 27.6875 48.390625 
Q 23 48.390625 18.546875 47.265625 
Q 14.109375 46.140625 10.015625 43.890625 
L 10.015625 52.203125 
Q 14.9375 54.109375 19.578125 55.046875 
Q 24.21875 56 28.609375 56 
Q 40.484375 56 46.34375 49.84375 
Q 52.203125 43.703125 52.203125 31.203125 
z
" id="DejaVuSans-61"/>
     <path d="M 41.109375 46.296875 
Q 39.59375 47.171875 37.8125 47.578125 
Q 36.03125 48 33.890625 48 
Q 26.265625 48 22.1875 43.046875 
Q 18.109375 38.09375 18.109375 28.8125 
L 18.109375 0 
L 9.078125 0 
L 9.078125 54.6875 
L 18.109375 54.6875 
L 18.109375 46.1875 
Q 20.953125 51.171875 25.484375 53.578125 
Q 30.03125 56 36.53125 56 
Q 37.453125 56 38.578125 55.875 
Q 39.703125 55.765625 41.0625 55.515625 
z
" id="DejaVuSans-72"/>
     <path d="M 56.203125 29.59375 
L 56.203125 25.203125 
L 14.890625 25.203125 
Q 15.484375 15.921875 20.484375 11.0625 
Q 25.484375 6.203125 34.421875 6.203125 
Q 39.59375 6.203125 44.453125 7.46875 
Q 49.3125 8.734375 54.109375 11.28125 
L 54.109375 2.78125 
Q 49.265625 0.734375 44.1875 -0.34375 
Q 39.109375 -1.421875 33.890625 -1.421875 
Q 20.796875 -1.421875 13.15625 6.1875 
Q 5.515625 13.8125 5.515625 26.8125 
Q 5.515625 40.234375 12.765625 48.109375 
Q 20.015625 56 32.328125 56 
Q 43.359375 56 49.78125 48.890625 
Q 56.203125 41.796875 56.203125 29.59375 
z
M 47.21875 32.234375 
Q 47.125 39.59375 43.09375 43.984375 
Q 39.0625 48.390625 32.421875 48.390625 
Q 24.90625 48.390625 20.390625 44.140625 
Q 15.875 39.890625 15.1875 32.171875 
z
" id="DejaVuSans-65"/>
     <path d="M 45.40625 46.390625 
L 45.40625 75.984375 
L 54.390625 75.984375 
L 54.390625 0 
L 45.40625 0 
L 45.40625 8.203125 
Q 42.578125 3.328125 38.25 0.953125 
Q 33.9375 -1.421875 27.875 -1.421875 
Q 17.96875 -1.421875 11.734375 6.484375 
Q 5.515625 14.40625 5.515625 27.296875 
Q 5.515625 40.1875 11.734375 48.09375 
Q 17.96875 56 27.875 56 
Q 33.9375 56 38.25 53.625 
Q 42.578125 51.265625 45.40625 46.390625 
z
M 14.796875 27.296875 
Q 14.796875 17.390625 18.875 11.75 
Q 22.953125 6.109375 30.078125 6.109375 
Q 37.203125 6.109375 41.296875 11.75 
Q 45.40625 17.390625 45.40625 27.296875 
Q 45.40625 37.203125 41.296875 42.84375 
Q 37.203125 48.484375 30.078125 48.484375 
Q 22.953125 48.484375 18.875 42.84375 
Q 14.796875 37.203125 14.796875 27.296875 
z
" id="DejaVuSans-64"/>
     <path id="DejaVuSans-20"/>
     <path d="M 9.8125 72.90625 
L 24.515625 72.90625 
L 43.109375 23.296875 
L 61.8125 72.90625 
L 76.515625 72.90625 
L 76.515625 0 
L 66.890625 0 
L 66.890625 64.015625 
L 48.09375 14.015625 
L 38.1875 14.015625 
L 19.390625 64.015625 
L 19.390625 0 
L 9.8125 0 
z
" id="DejaVuSans-4d"/>
     <path d="M 30.609375 48.390625 
Q 23.390625 48.390625 19.1875 42.75 
Q 14.984375 37.109375 14.984375 27.296875 
Q 14.984375 17.484375 19.15625 11.84375 
Q 23.34375 6.203125 30.609375 6.203125 
Q 37.796875 6.203125 41.984375 11.859375 
Q 46.1875 17.53125 46.1875 27.296875 
Q 46.1875 37.015625 41.984375 42.703125 
Q 37.796875 48.390625 30.609375 48.390625 
z
M 30.609375 56 
Q 42.328125 56 49.015625 48.375 
Q 55.71875 40.765625 55.71875 27.296875 
Q 55.71875 13.875 49.015625 6.21875 
Q 42.328125 -1.421875 30.609375 -1.421875 
Q 18.84375 -1.421875 12.171875 6.21875 
Q 5.515625 13.875 5.515625 27.296875 
Q 5.515625 40.765625 12.171875 48.375 
Q 18.84375 56 30.609375 56 
z
" id="DejaVuSans-6f"/>
     <path d="M 48.6875 27.296875 
Q 48.6875 37.203125 44.609375 42.84375 
Q 40.53125 48.484375 33.40625 48.484375 
Q 26.265625 48.484375 22.1875 42.84375 
Q 18.109375 37.203125 18.109375 27.296875 
Q 18.109375 17.390625 22.1875 11.75 
Q 26.265625 6.109375 33.40625 6.109375 
Q 40.53125 6.109375 44.609375 11.75 
Q 48.6875 17.390625 48.6875 27.296875 
z
M 18.109375 46.390625 
Q 20.953125 51.265625 25.265625 53.625 
Q 29.59375 56 35.59375 56 
Q 45.5625 56 51.78125 48.09375 
Q 58.015625 40.1875 58.015625 27.296875 
Q 58.015625 14.40625 51.78125 6.484375 
Q 45.5625 -1.421875 35.59375 -1.421875 
Q 29.59375 -1.421875 25.265625 0.953125 
Q 20.953125 3.328125 18.109375 8.203125 
L 18.109375 0 
L 9.078125 0 
L 9.078125 75.984375 
L 18.109375 75.984375 
z
" id="DejaVuSans-62"/>
     <path d="M 9.421875 54.6875 
L 18.40625 54.6875 
L 18.40625 0 
L 9.421875 0 
z
M 9.421875 75.984375 
L 18.40625 75.984375 
L 18.40625 64.59375 
L 9.421875 64.59375 
z
" id="DejaVuSans-69"/>
     <path d="M 9.421875 75.984375 
L 18.40625 75.984375 
L 18.40625 0 
L 9.421875 0 
z
" id="DejaVuSans-6c"/>
     <path d="M 18.3125 70.21875 
L 18.3125 54.6875 
L 36.8125 54.6875 
L 36.8125 47.703125 
L 18.3125 47.703125 
L 18.3125 18.015625 
Q 18.3125 11.328125 20.140625 9.421875 
Q 21.96875 7.515625 27.59375 7.515625 
L 36.8125 7.515625 
L 36.8125 0 
L 27.59375 0 
Q 17.1875 0 13.234375 3.875 
Q 9.28125 7.765625 9.28125 18.015625 
L 9.28125 47.703125 
L 2.6875 47.703125 
L 2.6875 54.6875 
L 9.28125 54.6875 
L 9.28125 70.21875 
z
" id="DejaVuSans-74"/>
     <path d="M 32.171875 -5.078125 
Q 28.375 -14.84375 24.75 -17.8125 
Q 21.140625 -20.796875 15.09375 -20.796875 
L 7.90625 -20.796875 
L 7.90625 -13.28125 
L 13.1875 -13.28125 
Q 16.890625 -13.28125 18.9375 -11.515625 
Q 21 -9.765625 23.484375 -3.21875 
L 25.09375 0.875 
L 2.984375 54.6875 
L 12.5 54.6875 
L 29.59375 11.921875 
L 46.6875 54.6875 
L 56.203125 54.6875 
z
" id="DejaVuSans-79"/>
    </defs>
    <g transform="translate(44.28945 16.318125)scale(0.12 -0.12)">
     <use xlink:href="#DejaVuSans-53"/>
     <use x="63.476562" xlink:href="#DejaVuSans-68"/>
     <use x="126.855469" xlink:href="#DejaVuSans-61"/>
     <use x="188.134766" xlink:href="#DejaVuSans-72"/>
     <use x="229.216797" xlink:href="#DejaVuSans-65"/>
     <use x="290.740234" xlink:href="#DejaVuSans-64"/>
     <use x="354.216797" xlink:href="#DejaVuSans-20"/>
     <use x="386.003906" xlink:href="#DejaVuSans-4d"/>
     <use x="472.283203" xlink:href="#DejaVuSans-6f"/>
     <use x="533.464844" xlink:href="#DejaVuSans-62"/>
     <use x="596.941406" xlink:href="#DejaVuSans-69"/>
     <use x="624.724609" xlink:href="#DejaVuSans-6c"/>
     <use x="652.507812" xlink:href="#DejaVuSans-69"/>
     <use x="680.291016" xlink:href="#DejaVuSans-74"/>
     <use x="719.5" xlink:href="#DejaVuSans-79"/>
    </g>
   </g>
  </g>
  <g id="axes_2">
   <g id="patch_7">
    <path d="M 171.825431 97.297435 
L 287.273707 97.297435 
L 287.273707 22.318125 
L 171.825431 22.318125 
z
" style="fill:#ffffff;"/>
   </g>
   <g id="matplotlib.axis_3">
    <g id="xtick_4">
     <g id="line2d_7">
      <g>
       <use style="stroke:#000000;stroke-width:0.8;" x="190.192202" xlink:href="#m174aedfc86" y="97.297435"/>
      </g>
     </g>
     <g id="text_7">
      <!-- 1990 -->
      <g transform="translate(177.467202 111.895873)scale(0.1 -0.1)">
       <use xlink:href="#DejaVuSans-31"/>
       <use x="63.623047" xlink:href="#DejaVuSans-39"/>
       <use x="127.246094" xlink:href="#DejaVuSans-39"/>
       <use x="190.869141" xlink:href="#DejaVuSans-30"/>
      </g>
     </g>
    </g>
    <g id="xtick_5">
     <g id="line2d_8">
      <g>
       <use style="stroke:#000000;stroke-width:0.8;" x="222.990008" xlink:href="#m174aedfc86" y="97.297435"/>
      </g>
     </g>
     <g id="text_8">
      <!-- 2000 -->
      <g transform="translate(210.265008 111.895873)scale(0.1 -0.1)">
       <use xlink:href="#DejaVuSans-32"/>
       <use x="63.623047" xlink:href="#DejaVuSans-30"/>
       <use x="127.246094" xlink:href="#DejaVuSans-30"/>
       <use x="190.869141" xlink:href="#DejaVuSans-30"/>
      </g>
     </g>
    </g>
    <g id="xtick_6">
     <g id="line2d_9">
      <g>
       <use style="stroke:#000000;stroke-width:0.8;" x="255.787813" xlink:href="#m174aedfc86" y="97.297435"/>
      </g>
     </g>
     <g id="text_9">
      <!-- 2010 -->
      <g transform="translate(243.062813 111.895873)scale(0.1 -0.1)">
       <use xlink:href="#DejaVuSans-32"/>
       <use x="63.623047" xlink:href="#DejaVuSans-30"/>
       <use x="127.246094" xlink:href="#DejaVuSans-31"/>
       <use x="190.869141" xlink:href="#DejaVuSans-30"/>
      </g>
     </g>
    </g>
   </g>
   <g id="matplotlib.axis_4">
    <g id="ytick_3">
     <g id="line2d_10">
      <g>
       <use style="stroke:#000000;stroke-width:0.8;" x="171.825431" xlink:href="#md1b2d62028" y="93.966919"/>
      </g>
     </g>
     <g id="text_10">
      <!-- 0 -->
      <g transform="translate(158.462931 97.766138)scale(0.1 -0.1)">
       <use xlink:href="#DejaVuSans-30"/>
      </g>
     </g>
    </g>
    <g id="ytick_4">
     <g id="line2d_11">
      <g>
       <use style="stroke:#000000;stroke-width:0.8;" x="171.825431" xlink:href="#md1b2d62028" y="55.149716"/>
      </g>
     </g>
     <g id="text_11">
      <!-- 500 -->
      <g transform="translate(145.737931 58.948934)scale(0.1 -0.1)">
       <use xlink:href="#DejaVuSans-35"/>
       <use x="63.623047" xlink:href="#DejaVuSans-30"/>
       <use x="127.246094" xlink:href="#DejaVuSans-30"/>
      </g>
     </g>
    </g>
   </g>
   <g id="line2d_12">
    <path clip-path="url(#pa2cf633b99)" d="M 249.228252 93.734016 
L 252.508033 93.656382 
L 255.787813 93.501113 
L 259.067594 93.345844 
L 262.347375 93.345844 
L 265.627155 92.414231 
L 268.906936 93.112941 
L 272.186716 91.948425 
L 275.466497 91.249715 
L 278.746277 90.085199 
L 282.026058 89.619392 
" style="fill:none;stroke:#1f77b4;stroke-linecap:square;stroke-width:1.5;"/>
   </g>
   <g id="patch_8">
    <path d="M 171.825431 97.297435 
L 171.825431 22.318125 
" style="fill:none;stroke:#000000;stroke-linecap:square;stroke-linejoin:miter;stroke-width:0.8;"/>
   </g>
   <g id="patch_9">
    <path d="M 287.273707 97.297435 
L 287.273707 22.318125 
" style="fill:none;stroke:#000000;stroke-linecap:square;stroke-linejoin:miter;stroke-width:0.8;"/>
   </g>
   <g id="patch_10">
    <path d="M 171.825431 97.297435 
L 287.273707 97.297435 
" style="fill:none;stroke:#000000;stroke-linecap:square;stroke-linejoin:miter;stroke-width:0.8;"/>
   </g>
   <g id="patch_11">
    <path d="M 171.825431 22.318125 
L 287.273707 22.318125 
" style="fill:none;stroke:#000000;stroke-linecap:square;stroke-linejoin:miter;stroke-width:0.8;"/>
   </g>
   <g id="text_12">
    <!-- Urban Governance -->
    <defs>
     <path d="M 8.6875 72.90625 
L 18.609375 72.90625 
L 18.609375 28.609375 
Q 18.609375 16.890625 22.84375 11.734375 
Q 27.09375 6.59375 36.625 6.59375 
Q 46.09375 6.59375 50.34375 11.734375 
Q 54.59375 16.890625 54.59375 28.609375 
L 54.59375 72.90625 
L 64.5 72.90625 
L 64.5 27.390625 
Q 64.5 13.140625 57.4375 5.859375 
Q 50.390625 -1.421875 36.625 -1.421875 
Q 22.796875 -1.421875 15.734375 5.859375 
Q 8.6875 13.140625 8.6875 27.390625 
z
" id="DejaVuSans-55"/>
     <path d="M 54.890625 33.015625 
L 54.890625 0 
L 45.90625 0 
L 45.90625 32.71875 
Q 45.90625 40.484375 42.875 44.328125 
Q 39.84375 48.1875 33.796875 48.1875 
Q 26.515625 48.1875 22.3125 43.546875 
Q 18.109375 38.921875 18.109375 30.90625 
L 18.109375 0 
L 9.078125 0 
L 9.078125 54.6875 
L 18.109375 54.6875 
L 18.109375 46.1875 
Q 21.34375 51.125 25.703125 53.5625 
Q 30.078125 56 35.796875 56 
Q 45.21875 56 50.046875 50.171875 
Q 54.890625 44.34375 54.890625 33.015625 
z
" id="DejaVuSans-6e"/>
     <path d="M 59.515625 10.40625 
L 59.515625 29.984375 
L 43.40625 29.984375 
L 43.40625 38.09375 
L 69.28125 38.09375 
L 69.28125 6.78125 
Q 63.578125 2.734375 56.6875 0.65625 
Q 49.8125 -1.421875 42 -1.421875 
Q 24.90625 -1.421875 15.25 8.5625 
Q 5.609375 18.5625 5.609375 36.375 
Q 5.609375 54.25 15.25 64.234375 
Q 24.90625 74.21875 42 74.21875 
Q 49.125 74.21875 55.546875 72.453125 
Q 61.96875 70.703125 67.390625 67.28125 
L 67.390625 56.78125 
Q 61.921875 61.421875 55.765625 63.765625 
Q 49.609375 66.109375 42.828125 66.109375 
Q 29.4375 66.109375 22.71875 58.640625 
Q 16.015625 51.171875 16.015625 36.375 
Q 16.015625 21.625 22.71875 14.15625 
Q 29.4375 6.6875 42.828125 6.6875 
Q 48.046875 6.6875 52.140625 7.59375 
Q 56.25 8.5 59.515625 10.40625 
z
" id="DejaVuSans-47"/>
     <path d="M 2.984375 54.6875 
L 12.5 54.6875 
L 29.59375 8.796875 
L 46.6875 54.6875 
L 56.203125 54.6875 
L 35.6875 0 
L 23.484375 0 
z
" id="DejaVuSans-76"/>
     <path d="M 48.78125 52.59375 
L 48.78125 44.1875 
Q 44.96875 46.296875 41.140625 47.34375 
Q 37.3125 48.390625 33.40625 48.390625 
Q 24.65625 48.390625 19.8125 42.84375 
Q 14.984375 37.3125 14.984375 27.296875 
Q 14.984375 17.28125 19.8125 11.734375 
Q 24.65625 6.203125 33.40625 6.203125 
Q 37.3125 6.203125 41.140625 7.25 
Q 44.96875 8.296875 48.78125 10.40625 
L 48.78125 2.09375 
Q 45.015625 0.34375 40.984375 -0.53125 
Q 36.96875 -1.421875 32.421875 -1.421875 
Q 20.0625 -1.421875 12.78125 6.34375 
Q 5.515625 14.109375 5.515625 27.296875 
Q 5.515625 40.671875 12.859375 48.328125 
Q 20.21875 56 33.015625 56 
Q 37.15625 56 41.109375 55.140625 
Q 45.0625 54.296875 48.78125 52.59375 
z
" id="DejaVuSans-63"/>
    </defs>
    <g transform="translate(173.194569 16.318125)scale(0.12 -0.12)">
     <use xlink:href="#DejaVuSans-55"/>
     <use x="73.193359" xlink:href="#DejaVuSans-72"/>
     <use x="114.306641" xlink:href="#DejaVuSans-62"/>
     <use x="177.783203" xlink:href="#DejaVuSans-61"/>
     <use x="239.0625" xlink:href="#DejaVuSans-6e"/>
     <use x="302.441406" xlink:href="#DejaVuSans-20"/>
     <use x="334.228516" xlink:href="#DejaVuSans-47"/>
     <use x="411.71875" xlink:href="#DejaVuSans-6f"/>
     <use x="472.900391" xlink:href="#DejaVuSans-76"/>
     <use x="532.080078" xlink:href="#DejaVuSans-65"/>
     <use x="593.603516" xlink:href="#DejaVuSans-72"/>
     <use x="634.701172" xlink:href="#DejaVuSans-6e"/>
     <use x="698.080078" xlink:href="#DejaVuSans-61"/>
     <use x="759.359375" xlink:href="#DejaVuSans-6e"/>
     <use x="822.738281" xlink:href="#DejaVuSans-63"/>
     <use x="877.71875" xlink:href="#DejaVuSans-65"/>
    </g>
   </g>
  </g>
  <g id="axes_3">
   <g id="patch_12">
    <path d="M 310.363362 97.297435 
L 425.811638 97.297435 
L 425.811638 22.318125 
L 310.363362 22.318125 
z
" style="fill:#ffffff;"/>
   </g>
   <g id="matplotlib.axis_5">
    <g id="xtick_7">
     <g id="line2d_13">
      <g>
       <use style="stroke:#000000;stroke-width:0.8;" x="328.730133" xlink:href="#m174aedfc86" y="97.297435"/>
      </g>
     </g>
     <g id="text_13">
      <!-- 1990 -->
      <g transform="translate(316.005133 111.895873)scale(0.1 -0.1)">
       <use xlink:href="#DejaVuSans-31"/>
       <use x="63.623047" xlink:href="#DejaVuSans-39"/>
       <use x="127.246094" xlink:href="#DejaVuSans-39"/>
       <use x="190.869141" xlink:href="#DejaVuSans-30"/>
      </g>
     </g>
    </g>
    <g id="xtick_8">
     <g id="line2d_14">
      <g>
       <use style="stroke:#000000;stroke-width:0.8;" x="361.527939" xlink:href="#m174aedfc86" y="97.297435"/>
      </g>
     </g>
     <g id="text_14">
      <!-- 2000 -->
      <g transform="translate(348.802939 111.895873)scale(0.1 -0.1)">
       <use xlink:href="#DejaVuSans-32"/>
       <use x="63.623047" xlink:href="#DejaVuSans-30"/>
       <use x="127.246094" xlink:href="#DejaVuSans-30"/>
       <use x="190.869141" xlink:href="#DejaVuSans-30"/>
      </g>
     </g>
    </g>
    <g id="xtick_9">
     <g id="line2d_15">
      <g>
       <use style="stroke:#000000;stroke-width:0.8;" x="394.325745" xlink:href="#m174aedfc86" y="97.297435"/>
      </g>
     </g>
     <g id="text_15">
      <!-- 2010 -->
      <g transform="translate(381.600745 111.895873)scale(0.1 -0.1)">
       <use xlink:href="#DejaVuSans-32"/>
       <use x="63.623047" xlink:href="#DejaVuSans-30"/>
       <use x="127.246094" xlink:href="#DejaVuSans-31"/>
       <use x="190.869141" xlink:href="#DejaVuSans-30"/>
      </g>
     </g>
    </g>
   </g>
   <g id="matplotlib.axis_6">
    <g id="ytick_5">
     <g id="line2d_16">
      <g>
       <use style="stroke:#000000;stroke-width:0.8;" x="310.363362" xlink:href="#md1b2d62028" y="93.966919"/>
      </g>
     </g>
     <g id="text_16">
      <!-- 0 -->
      <g transform="translate(297.000862 97.766138)scale(0.1 -0.1)">
       <use xlink:href="#DejaVuSans-30"/>
      </g>
     </g>
    </g>
    <g id="ytick_6">
     <g id="line2d_17">
      <g>
       <use style="stroke:#000000;stroke-width:0.8;" x="310.363362" xlink:href="#md1b2d62028" y="55.149716"/>
      </g>
     </g>
     <g id="text_17">
      <!-- 500 -->
      <g transform="translate(284.275862 58.948934)scale(0.1 -0.1)">
       <use xlink:href="#DejaVuSans-35"/>
       <use x="63.623047" xlink:href="#DejaVuSans-30"/>
       <use x="127.246094" xlink:href="#DejaVuSans-30"/>
      </g>
     </g>
    </g>
   </g>
   <g id="line2d_18">
    <path clip-path="url(#p52c2caccca)" d="M 332.009914 93.889285 
L 341.849255 93.889285 
L 345.129036 93.81165 
L 351.688597 93.889285 
L 361.527939 93.889285 
L 371.367281 93.734016 
L 374.647061 93.81165 
L 377.926842 93.81165 
L 381.206622 93.889285 
L 384.486403 93.656382 
L 387.766183 93.190575 
L 391.045964 93.345844 
L 394.325745 92.802403 
L 397.605525 92.491866 
L 400.885306 91.87079 
L 404.165086 91.249715 
L 407.444867 91.094446 
L 410.724647 90.939177 
L 414.004428 87.98907 
L 417.284208 86.824554 
L 420.563989 86.902188 
" style="fill:none;stroke:#1f77b4;stroke-linecap:square;stroke-width:1.5;"/>
   </g>
   <g id="patch_13">
    <path d="M 310.363362 97.297435 
L 310.363362 22.318125 
" style="fill:none;stroke:#000000;stroke-linecap:square;stroke-linejoin:miter;stroke-width:0.8;"/>
   </g>
   <g id="patch_14">
    <path d="M 425.811638 97.297435 
L 425.811638 22.318125 
" style="fill:none;stroke:#000000;stroke-linecap:square;stroke-linejoin:miter;stroke-width:0.8;"/>
   </g>
   <g id="patch_15">
    <path d="M 310.363362 97.297435 
L 425.811638 97.297435 
" style="fill:none;stroke:#000000;stroke-linecap:square;stroke-linejoin:miter;stroke-width:0.8;"/>
   </g>
   <g id="patch_16">
    <path d="M 310.363362 22.318125 
L 425.811638 22.318125 
" style="fill:none;stroke:#000000;stroke-linecap:square;stroke-linejoin:miter;stroke-width:0.8;"/>
   </g>
   <g id="text_18">
    <!-- Well-being -->
    <defs>
     <path d="M 3.328125 72.90625 
L 13.28125 72.90625 
L 28.609375 11.28125 
L 43.890625 72.90625 
L 54.984375 72.90625 
L 70.3125 11.28125 
L 85.59375 72.90625 
L 95.609375 72.90625 
L 77.296875 0 
L 64.890625 0 
L 49.515625 63.28125 
L 33.984375 0 
L 21.578125 0 
z
" id="DejaVuSans-57"/>
     <path d="M 4.890625 31.390625 
L 31.203125 31.390625 
L 31.203125 23.390625 
L 4.890625 23.390625 
z
" id="DejaVuSans-2d"/>
     <path d="M 45.40625 27.984375 
Q 45.40625 37.75 41.375 43.109375 
Q 37.359375 48.484375 30.078125 48.484375 
Q 22.859375 48.484375 18.828125 43.109375 
Q 14.796875 37.75 14.796875 27.984375 
Q 14.796875 18.265625 18.828125 12.890625 
Q 22.859375 7.515625 30.078125 7.515625 
Q 37.359375 7.515625 41.375 12.890625 
Q 45.40625 18.265625 45.40625 27.984375 
z
M 54.390625 6.78125 
Q 54.390625 -7.171875 48.1875 -13.984375 
Q 42 -20.796875 29.203125 -20.796875 
Q 24.46875 -20.796875 20.265625 -20.09375 
Q 16.0625 -19.390625 12.109375 -17.921875 
L 12.109375 -9.1875 
Q 16.0625 -11.328125 19.921875 -12.34375 
Q 23.78125 -13.375 27.78125 -13.375 
Q 36.625 -13.375 41.015625 -8.765625 
Q 45.40625 -4.15625 45.40625 5.171875 
L 45.40625 9.625 
Q 42.625 4.78125 38.28125 2.390625 
Q 33.9375 0 27.875 0 
Q 17.828125 0 11.671875 7.65625 
Q 5.515625 15.328125 5.515625 27.984375 
Q 5.515625 40.671875 11.671875 48.328125 
Q 17.828125 56 27.875 56 
Q 33.9375 56 38.28125 53.609375 
Q 42.625 51.21875 45.40625 46.390625 
L 45.40625 54.6875 
L 54.390625 54.6875 
z
" id="DejaVuSans-67"/>
    </defs>
    <g transform="translate(336.19 16.318125)scale(0.12 -0.12)">
     <use xlink:href="#DejaVuSans-57"/>
     <use x="98.798828" xlink:href="#DejaVuSans-65"/>
     <use x="160.322266" xlink:href="#DejaVuSans-6c"/>
     <use x="188.105469" xlink:href="#DejaVuSans-6c"/>
     <use x="215.888672" xlink:href="#DejaVuSans-2d"/>
     <use x="251.972656" xlink:href="#DejaVuSans-62"/>
     <use x="315.449219" xlink:href="#DejaVuSans-65"/>
     <use x="376.972656" xlink:href="#DejaVuSans-69"/>
     <use x="404.755859" xlink:href="#DejaVuSans-6e"/>
     <use x="468.134766" xlink:href="#DejaVuSans-67"/>
    </g>
   </g>
  </g>
  <g id="axes_4">
   <g id="patch_17">
    <path d="M 448.901293 97.297435 
L 564.349569 97.297435 
L 564.349569 22.318125 
L 448.901293 22.318125 
z
" style="fill:#ffffff;"/>
   </g>
   <g id="matplotlib.axis_7">
    <g id="xtick_10">
     <g id="line2d_19">
      <g>
       <use style="stroke:#000000;stroke-width:0.8;" x="467.268064" xlink:href="#m174aedfc86" y="97.297435"/>
      </g>
     </g>
     <g id="text_19">
      <!-- 1990 -->
      <g transform="translate(454.543064 111.895873)scale(0.1 -0.1)">
       <use xlink:href="#DejaVuSans-31"/>
       <use x="63.623047" xlink:href="#DejaVuSans-39"/>
       <use x="127.246094" xlink:href="#DejaVuSans-39"/>
       <use x="190.869141" xlink:href="#DejaVuSans-30"/>
      </g>
     </g>
    </g>
    <g id="xtick_11">
     <g id="line2d_20">
      <g>
       <use style="stroke:#000000;stroke-width:0.8;" x="500.06587" xlink:href="#m174aedfc86" y="97.297435"/>
      </g>
     </g>
     <g id="text_20">
      <!-- 2000 -->
      <g transform="translate(487.34087 111.895873)scale(0.1 -0.1)">
       <use xlink:href="#DejaVuSans-32"/>
       <use x="63.623047" xlink:href="#DejaVuSans-30"/>
       <use x="127.246094" xlink:href="#DejaVuSans-30"/>
       <use x="190.869141" xlink:href="#DejaVuSans-30"/>
      </g>
     </g>
    </g>
    <g id="xtick_12">
     <g id="line2d_21">
      <g>
       <use style="stroke:#000000;stroke-width:0.8;" x="532.863676" xlink:href="#m174aedfc86" y="97.297435"/>
      </g>
     </g>
     <g id="text_21">
      <!-- 2010 -->
      <g transform="translate(520.138676 111.895873)scale(0.1 -0.1)">
       <use xlink:href="#DejaVuSans-32"/>
       <use x="63.623047" xlink:href="#DejaVuSans-30"/>
       <use x="127.246094" xlink:href="#DejaVuSans-31"/>
       <use x="190.869141" xlink:href="#DejaVuSans-30"/>
      </g>
     </g>
    </g>
   </g>
   <g id="matplotlib.axis_8">
    <g id="ytick_7">
     <g id="line2d_22">
      <g>
       <use style="stroke:#000000;stroke-width:0.8;" x="448.901293" xlink:href="#md1b2d62028" y="93.966919"/>
      </g>
     </g>
     <g id="text_22">
      <!-- 0 -->
      <g transform="translate(435.538793 97.766138)scale(0.1 -0.1)">
       <use xlink:href="#DejaVuSans-30"/>
      </g>
     </g>
    </g>
    <g id="ytick_8">
     <g id="line2d_23">
      <g>
       <use style="stroke:#000000;stroke-width:0.8;" x="448.901293" xlink:href="#md1b2d62028" y="55.149716"/>
      </g>
     </g>
     <g id="text_23">
      <!-- 500 -->
      <g transform="translate(422.813793 58.948934)scale(0.1 -0.1)">
       <use xlink:href="#DejaVuSans-35"/>
       <use x="63.623047" xlink:href="#DejaVuSans-30"/>
       <use x="127.246094" xlink:href="#DejaVuSans-30"/>
      </g>
     </g>
    </g>
   </g>
   <g id="line2d_24">
    <path clip-path="url(#p061b83c5b2)" d="M 470.547845 93.889285 
L 473.827625 93.81165 
L 483.666967 93.81165 
L 493.506309 93.889285 
L 496.786089 93.81165 
L 500.06587 93.81165 
L 503.34565 93.81165 
L 506.625431 93.889285 
L 513.184992 93.578747 
L 516.464773 93.423478 
L 519.744553 93.656382 
L 523.024334 93.423478 
L 526.304114 93.656382 
L 529.583895 93.190575 
L 532.863676 92.491866 
L 536.143456 92.414231 
L 539.423237 92.414231 
L 542.703017 90.939177 
L 545.982798 90.939177 
L 549.262578 89.075952 
L 552.542359 88.299608 
L 555.822139 87.600898 
L 559.10192 85.271866 
" style="fill:none;stroke:#1f77b4;stroke-linecap:square;stroke-width:1.5;"/>
   </g>
   <g id="patch_18">
    <path d="M 448.901293 97.297435 
L 448.901293 22.318125 
" style="fill:none;stroke:#000000;stroke-linecap:square;stroke-linejoin:miter;stroke-width:0.8;"/>
   </g>
   <g id="patch_19">
    <path d="M 564.349569 97.297435 
L 564.349569 22.318125 
" style="fill:none;stroke:#000000;stroke-linecap:square;stroke-linejoin:miter;stroke-width:0.8;"/>
   </g>
   <g id="patch_20">
    <path d="M 448.901293 97.297435 
L 564.349569 97.297435 
" style="fill:none;stroke:#000000;stroke-linecap:square;stroke-linejoin:miter;stroke-width:0.8;"/>
   </g>
   <g id="patch_21">
    <path d="M 448.901293 22.318125 
L 564.349569 22.318125 
" style="fill:none;stroke:#000000;stroke-linecap:square;stroke-linejoin:miter;stroke-width:0.8;"/>
   </g>
   <g id="text_24">
    <!-- Bottom-up drivers (2) -->
    <defs>
     <path d="M 19.671875 34.8125 
L 19.671875 8.109375 
L 35.5 8.109375 
Q 43.453125 8.109375 47.28125 11.40625 
Q 51.125 14.703125 51.125 21.484375 
Q 51.125 28.328125 47.28125 31.5625 
Q 43.453125 34.8125 35.5 34.8125 
z
M 19.671875 64.796875 
L 19.671875 42.828125 
L 34.28125 42.828125 
Q 41.5 42.828125 45.03125 45.53125 
Q 48.578125 48.25 48.578125 53.8125 
Q 48.578125 59.328125 45.03125 62.0625 
Q 41.5 64.796875 34.28125 64.796875 
z
M 9.8125 72.90625 
L 35.015625 72.90625 
Q 46.296875 72.90625 52.390625 68.21875 
Q 58.5 63.53125 58.5 54.890625 
Q 58.5 48.1875 55.375 44.234375 
Q 52.25 40.28125 46.1875 39.3125 
Q 53.46875 37.75 57.5 32.78125 
Q 61.53125 27.828125 61.53125 20.40625 
Q 61.53125 10.640625 54.890625 5.3125 
Q 48.25 0 35.984375 0 
L 9.8125 0 
z
" id="DejaVuSans-42"/>
     <path d="M 52 44.1875 
Q 55.375 50.25 60.0625 53.125 
Q 64.75 56 71.09375 56 
Q 79.640625 56 84.28125 50.015625 
Q 88.921875 44.046875 88.921875 33.015625 
L 88.921875 0 
L 79.890625 0 
L 79.890625 32.71875 
Q 79.890625 40.578125 77.09375 44.375 
Q 74.3125 48.1875 68.609375 48.1875 
Q 61.625 48.1875 57.5625 43.546875 
Q 53.515625 38.921875 53.515625 30.90625 
L 53.515625 0 
L 44.484375 0 
L 44.484375 32.71875 
Q 44.484375 40.625 41.703125 44.40625 
Q 38.921875 48.1875 33.109375 48.1875 
Q 26.21875 48.1875 22.15625 43.53125 
Q 18.109375 38.875 18.109375 30.90625 
L 18.109375 0 
L 9.078125 0 
L 9.078125 54.6875 
L 18.109375 54.6875 
L 18.109375 46.1875 
Q 21.1875 51.21875 25.484375 53.609375 
Q 29.78125 56 35.6875 56 
Q 41.65625 56 45.828125 52.96875 
Q 50 49.953125 52 44.1875 
z
" id="DejaVuSans-6d"/>
     <path d="M 8.5 21.578125 
L 8.5 54.6875 
L 17.484375 54.6875 
L 17.484375 21.921875 
Q 17.484375 14.15625 20.5 10.265625 
Q 23.53125 6.390625 29.59375 6.390625 
Q 36.859375 6.390625 41.078125 11.03125 
Q 45.3125 15.671875 45.3125 23.6875 
L 45.3125 54.6875 
L 54.296875 54.6875 
L 54.296875 0 
L 45.3125 0 
L 45.3125 8.40625 
Q 42.046875 3.421875 37.71875 1 
Q 33.40625 -1.421875 27.6875 -1.421875 
Q 18.265625 -1.421875 13.375 4.4375 
Q 8.5 10.296875 8.5 21.578125 
z
M 31.109375 56 
z
" id="DejaVuSans-75"/>
     <path d="M 18.109375 8.203125 
L 18.109375 -20.796875 
L 9.078125 -20.796875 
L 9.078125 54.6875 
L 18.109375 54.6875 
L 18.109375 46.390625 
Q 20.953125 51.265625 25.265625 53.625 
Q 29.59375 56 35.59375 56 
Q 45.5625 56 51.78125 48.09375 
Q 58.015625 40.1875 58.015625 27.296875 
Q 58.015625 14.40625 51.78125 6.484375 
Q 45.5625 -1.421875 35.59375 -1.421875 
Q 29.59375 -1.421875 25.265625 0.953125 
Q 20.953125 3.328125 18.109375 8.203125 
z
M 48.6875 27.296875 
Q 48.6875 37.203125 44.609375 42.84375 
Q 40.53125 48.484375 33.40625 48.484375 
Q 26.265625 48.484375 22.1875 42.84375 
Q 18.109375 37.203125 18.109375 27.296875 
Q 18.109375 17.390625 22.1875 11.75 
Q 26.265625 6.109375 33.40625 6.109375 
Q 40.53125 6.109375 44.609375 11.75 
Q 48.6875 17.390625 48.6875 27.296875 
z
" id="DejaVuSans-70"/>
     <path d="M 44.28125 53.078125 
L 44.28125 44.578125 
Q 40.484375 46.53125 36.375 47.5 
Q 32.28125 48.484375 27.875 48.484375 
Q 21.1875 48.484375 17.84375 46.4375 
Q 14.5 44.390625 14.5 40.28125 
Q 14.5 37.15625 16.890625 35.375 
Q 19.28125 33.59375 26.515625 31.984375 
L 29.59375 31.296875 
Q 39.15625 29.25 43.1875 25.515625 
Q 47.21875 21.78125 47.21875 15.09375 
Q 47.21875 7.46875 41.1875 3.015625 
Q 35.15625 -1.421875 24.609375 -1.421875 
Q 20.21875 -1.421875 15.453125 -0.5625 
Q 10.6875 0.296875 5.421875 2 
L 5.421875 11.28125 
Q 10.40625 8.6875 15.234375 7.390625 
Q 20.0625 6.109375 24.8125 6.109375 
Q 31.15625 6.109375 34.5625 8.28125 
Q 37.984375 10.453125 37.984375 14.40625 
Q 37.984375 18.0625 35.515625 20.015625 
Q 33.0625 21.96875 24.703125 23.78125 
L 21.578125 24.515625 
Q 13.234375 26.265625 9.515625 29.90625 
Q 5.8125 33.546875 5.8125 39.890625 
Q 5.8125 47.609375 11.28125 51.796875 
Q 16.75 56 26.8125 56 
Q 31.78125 56 36.171875 55.265625 
Q 40.578125 54.546875 44.28125 53.078125 
z
" id="DejaVuSans-73"/>
     <path d="M 31 75.875 
Q 24.46875 64.65625 21.28125 53.65625 
Q 18.109375 42.671875 18.109375 31.390625 
Q 18.109375 20.125 21.3125 9.0625 
Q 24.515625 -2 31 -13.1875 
L 23.1875 -13.1875 
Q 15.875 -1.703125 12.234375 9.375 
Q 8.59375 20.453125 8.59375 31.390625 
Q 8.59375 42.28125 12.203125 53.3125 
Q 15.828125 64.359375 23.1875 75.875 
z
" id="DejaVuSans-28"/>
     <path d="M 8.015625 75.875 
L 15.828125 75.875 
Q 23.140625 64.359375 26.78125 53.3125 
Q 30.421875 42.28125 30.421875 31.390625 
Q 30.421875 20.453125 26.78125 9.375 
Q 23.140625 -1.703125 15.828125 -13.1875 
L 8.015625 -13.1875 
Q 14.5 -2 17.703125 9.0625 
Q 20.90625 20.125 20.90625 31.390625 
Q 20.90625 42.671875 17.703125 53.65625 
Q 14.5 64.65625 8.015625 75.875 
z
" id="DejaVuSans-29"/>
    </defs>
    <g transform="translate(441.750431 16.318125)scale(0.12 -0.12)">
     <use xlink:href="#DejaVuSans-42"/>
     <use x="68.603516" xlink:href="#DejaVuSans-6f"/>
     <use x="129.785156" xlink:href="#DejaVuSans-74"/>
     <use x="168.994141" xlink:href="#DejaVuSans-74"/>
     <use x="208.203125" xlink:href="#DejaVuSans-6f"/>
     <use x="269.384766" xlink:href="#DejaVuSans-6d"/>
     <use x="366.796875" xlink:href="#DejaVuSans-2d"/>
     <use x="402.880859" xlink:href="#DejaVuSans-75"/>
     <use x="466.259766" xlink:href="#DejaVuSans-70"/>
     <use x="529.736328" xlink:href="#DejaVuSans-20"/>
     <use x="561.523438" xlink:href="#DejaVuSans-64"/>
     <use x="625" xlink:href="#DejaVuSans-72"/>
     <use x="666.113281" xlink:href="#DejaVuSans-69"/>
     <use x="693.896484" xlink:href="#DejaVuSans-76"/>
     <use x="753.076172" xlink:href="#DejaVuSans-65"/>
     <use x="814.599609" xlink:href="#DejaVuSans-72"/>
     <use x="855.712891" xlink:href="#DejaVuSans-73"/>
     <use x="907.8125" xlink:href="#DejaVuSans-20"/>
     <use x="939.599609" xlink:href="#DejaVuSans-28"/>
     <use x="978.613281" xlink:href="#DejaVuSans-32"/>
     <use x="1042.236328" xlink:href="#DejaVuSans-29"/>
    </g>
   </g>
  </g>
  <g id="axes_5">
   <g id="patch_22">
    <path d="M 587.439224 97.297435 
L 702.8875 97.297435 
L 702.8875 22.318125 
L 587.439224 22.318125 
z
" style="fill:#ffffff;"/>
   </g>
   <g id="matplotlib.axis_9">
    <g id="xtick_13">
     <g id="line2d_25">
      <g>
       <use style="stroke:#000000;stroke-width:0.8;" x="605.805995" xlink:href="#m174aedfc86" y="97.297435"/>
      </g>
     </g>
     <g id="text_25">
      <!-- 1990 -->
      <g transform="translate(593.080995 111.895873)scale(0.1 -0.1)">
       <use xlink:href="#DejaVuSans-31"/>
       <use x="63.623047" xlink:href="#DejaVuSans-39"/>
       <use x="127.246094" xlink:href="#DejaVuSans-39"/>
       <use x="190.869141" xlink:href="#DejaVuSans-30"/>
      </g>
     </g>
    </g>
    <g id="xtick_14">
     <g id="line2d_26">
      <g>
       <use style="stroke:#000000;stroke-width:0.8;" x="638.603801" xlink:href="#m174aedfc86" y="97.297435"/>
      </g>
     </g>
     <g id="text_26">
      <!-- 2000 -->
      <g transform="translate(625.878801 111.895873)scale(0.1 -0.1)">
       <use xlink:href="#DejaVuSans-32"/>
       <use x="63.623047" xlink:href="#DejaVuSans-30"/>
       <use x="127.246094" xlink:href="#DejaVuSans-30"/>
       <use x="190.869141" xlink:href="#DejaVuSans-30"/>
      </g>
     </g>
    </g>
    <g id="xtick_15">
     <g id="line2d_27">
      <g>
       <use style="stroke:#000000;stroke-width:0.8;" x="671.401607" xlink:href="#m174aedfc86" y="97.297435"/>
      </g>
     </g>
     <g id="text_27">
      <!-- 2010 -->
      <g transform="translate(658.676607 111.895873)scale(0.1 -0.1)">
       <use xlink:href="#DejaVuSans-32"/>
       <use x="63.623047" xlink:href="#DejaVuSans-30"/>
       <use x="127.246094" xlink:href="#DejaVuSans-31"/>
       <use x="190.869141" xlink:href="#DejaVuSans-30"/>
      </g>
     </g>
    </g>
   </g>
   <g id="matplotlib.axis_10">
    <g id="ytick_9">
     <g id="line2d_28">
      <g>
       <use style="stroke:#000000;stroke-width:0.8;" x="587.439224" xlink:href="#md1b2d62028" y="93.966919"/>
      </g>
     </g>
     <g id="text_28">
      <!-- 0 -->
      <g transform="translate(574.076724 97.766138)scale(0.1 -0.1)">
       <use xlink:href="#DejaVuSans-30"/>
      </g>
     </g>
    </g>
    <g id="ytick_10">
     <g id="line2d_29">
      <g>
       <use style="stroke:#000000;stroke-width:0.8;" x="587.439224" xlink:href="#md1b2d62028" y="55.149716"/>
      </g>
     </g>
     <g id="text_29">
      <!-- 500 -->
      <g transform="translate(561.351724 58.948934)scale(0.1 -0.1)">
       <use xlink:href="#DejaVuSans-35"/>
       <use x="63.623047" xlink:href="#DejaVuSans-30"/>
       <use x="127.246094" xlink:href="#DejaVuSans-30"/>
      </g>
     </g>
    </g>
   </g>
   <g id="line2d_30">
    <path clip-path="url(#pa602a03630)" d="M 612.365556 93.889285 
L 632.04424 93.81165 
L 635.32402 93.889285 
L 638.603801 93.656382 
L 641.883582 93.734016 
L 648.443143 93.889285 
L 651.722923 93.81165 
L 655.002704 93.889285 
L 658.282484 93.734016 
L 661.562265 92.957672 
L 664.842045 93.501113 
L 668.121826 93.423478 
L 671.401607 93.112941 
L 674.681387 92.414231 
L 677.961168 91.948425 
L 681.240948 91.948425 
L 684.520729 90.395737 
L 687.800509 88.377242 
L 691.08029 87.445629 
L 694.360071 87.212726 
L 697.639851 82.787565 
" style="fill:none;stroke:#1f77b4;stroke-linecap:square;stroke-width:1.5;"/>
   </g>
   <g id="patch_23">
    <path d="M 587.439224 97.297435 
L 587.439224 22.318125 
" style="fill:none;stroke:#000000;stroke-linecap:square;stroke-linejoin:miter;stroke-width:0.8;"/>
   </g>
   <g id="patch_24">
    <path d="M 702.8875 97.297435 
L 702.8875 22.318125 
" style="fill:none;stroke:#000000;stroke-linecap:square;stroke-linejoin:miter;stroke-width:0.8;"/>
   </g>
   <g id="patch_25">
    <path d="M 587.439224 97.297435 
L 702.8875 97.297435 
" style="fill:none;stroke:#000000;stroke-linecap:square;stroke-linejoin:miter;stroke-width:0.8;"/>
   </g>
   <g id="patch_26">
    <path d="M 587.439224 22.318125 
L 702.8875 22.318125 
" style="fill:none;stroke:#000000;stroke-linecap:square;stroke-linejoin:miter;stroke-width:0.8;"/>
   </g>
   <g id="text_30">
    <!-- Acceptability -->
    <defs>
     <path d="M 34.1875 63.1875 
L 20.796875 26.90625 
L 47.609375 26.90625 
z
M 28.609375 72.90625 
L 39.796875 72.90625 
L 67.578125 0 
L 57.328125 0 
L 50.6875 18.703125 
L 17.828125 18.703125 
L 11.1875 0 
L 0.78125 0 
z
" id="DejaVuSans-41"/>
    </defs>
    <g transform="translate(606.218675 16.318125)scale(0.12 -0.12)">
     <use xlink:href="#DejaVuSans-41"/>
     <use x="68.392578" xlink:href="#DejaVuSans-63"/>
     <use x="123.373047" xlink:href="#DejaVuSans-63"/>
     <use x="178.353516" xlink:href="#DejaVuSans-65"/>
     <use x="239.876953" xlink:href="#DejaVuSans-70"/>
     <use x="303.353516" xlink:href="#DejaVuSans-74"/>
     <use x="342.5625" xlink:href="#DejaVuSans-61"/>
     <use x="403.841797" xlink:href="#DejaVuSans-62"/>
     <use x="467.318359" xlink:href="#DejaVuSans-69"/>
     <use x="495.101562" xlink:href="#DejaVuSans-6c"/>
     <use x="522.884766" xlink:href="#DejaVuSans-69"/>
     <use x="550.667969" xlink:href="#DejaVuSans-74"/>
     <use x="589.876953" xlink:href="#DejaVuSans-79"/>
    </g>
   </g>
  </g>
  <g id="axes_6">
   <g id="patch_27">
    <path d="M 33.2875 187.272608 
L 148.735776 187.272608 
L 148.735776 112.293297 
L 33.2875 112.293297 
z
" style="fill:#ffffff;"/>
   </g>
   <g id="matplotlib.axis_11">
    <g id="xtick_16">
     <g id="line2d_31">
      <g>
       <use style="stroke:#000000;stroke-width:0.8;" x="51.654271" xlink:href="#m174aedfc86" y="187.272608"/>
      </g>
     </g>
     <g id="text_31">
      <!-- 1990 -->
      <g transform="translate(38.929271 201.871045)scale(0.1 -0.1)">
       <use xlink:href="#DejaVuSans-31"/>
       <use x="63.623047" xlink:href="#DejaVuSans-39"/>
       <use x="127.246094" xlink:href="#DejaVuSans-39"/>
       <use x="190.869141" xlink:href="#DejaVuSans-30"/>
      </g>
     </g>
    </g>
    <g id="xtick_17">
     <g id="line2d_32">
      <g>
       <use style="stroke:#000000;stroke-width:0.8;" x="84.452077" xlink:href="#m174aedfc86" y="187.272608"/>
      </g>
     </g>
     <g id="text_32">
      <!-- 2000 -->
      <g transform="translate(71.727077 201.871045)scale(0.1 -0.1)">
       <use xlink:href="#DejaVuSans-32"/>
       <use x="63.623047" xlink:href="#DejaVuSans-30"/>
       <use x="127.246094" xlink:href="#DejaVuSans-30"/>
       <use x="190.869141" xlink:href="#DejaVuSans-30"/>
      </g>
     </g>
    </g>
    <g id="xtick_18">
     <g id="line2d_33">
      <g>
       <use style="stroke:#000000;stroke-width:0.8;" x="117.249882" xlink:href="#m174aedfc86" y="187.272608"/>
      </g>
     </g>
     <g id="text_33">
      <!-- 2010 -->
      <g transform="translate(104.524882 201.871045)scale(0.1 -0.1)">
       <use xlink:href="#DejaVuSans-32"/>
       <use x="63.623047" xlink:href="#DejaVuSans-30"/>
       <use x="127.246094" xlink:href="#DejaVuSans-31"/>
       <use x="190.869141" xlink:href="#DejaVuSans-30"/>
      </g>
     </g>
    </g>
   </g>
   <g id="matplotlib.axis_12">
    <g id="ytick_11">
     <g id="line2d_34">
      <g>
       <use style="stroke:#000000;stroke-width:0.8;" x="33.2875" xlink:href="#md1b2d62028" y="183.942092"/>
      </g>
     </g>
     <g id="text_34">
      <!-- 0 -->
      <g transform="translate(19.925 187.74131)scale(0.1 -0.1)">
       <use xlink:href="#DejaVuSans-30"/>
      </g>
     </g>
    </g>
    <g id="ytick_12">
     <g id="line2d_35">
      <g>
       <use style="stroke:#000000;stroke-width:0.8;" x="33.2875" xlink:href="#md1b2d62028" y="145.124888"/>
      </g>
     </g>
     <g id="text_35">
      <!-- 500 -->
      <g transform="translate(7.2 148.924107)scale(0.1 -0.1)">
       <use xlink:href="#DejaVuSans-35"/>
       <use x="63.623047" xlink:href="#DejaVuSans-30"/>
       <use x="127.246094" xlink:href="#DejaVuSans-30"/>
      </g>
     </g>
    </g>
   </g>
   <g id="line2d_36">
    <path clip-path="url(#p111c7f9e88)" d="M 51.654271 183.864457 
L 54.934052 183.398651 
L 58.213832 183.631554 
L 61.493613 183.709188 
L 64.773393 183.55392 
L 68.053174 183.398651 
L 71.332955 183.398651 
L 74.612735 183.631554 
L 77.892516 183.55392 
L 81.172296 183.631554 
L 84.452077 183.243382 
L 87.731857 183.476285 
L 91.011638 182.932844 
L 94.291418 183.088113 
L 97.571199 182.932844 
L 100.85098 182.85521 
L 104.13076 182.1565 
L 107.410541 181.457791 
L 110.690321 180.991984 
L 113.970102 180.370909 
L 117.249882 180.91435 
L 120.529663 180.293275 
L 123.809444 180.370909 
L 127.089224 178.27478 
L 130.369005 178.041877 
L 133.648785 176.101017 
L 136.928566 175.868113 
L 140.208346 175.402307 
L 143.488127 174.470694 
" style="fill:none;stroke:#1f77b4;stroke-linecap:square;stroke-width:1.5;"/>
   </g>
   <g id="patch_28">
    <path d="M 33.2875 187.272608 
L 33.2875 112.293297 
" style="fill:none;stroke:#000000;stroke-linecap:square;stroke-linejoin:miter;stroke-width:0.8;"/>
   </g>
   <g id="patch_29">
    <path d="M 148.735776 187.272608 
L 148.735776 112.293297 
" style="fill:none;stroke:#000000;stroke-linecap:square;stroke-linejoin:miter;stroke-width:0.8;"/>
   </g>
   <g id="patch_30">
    <path d="M 33.2875 187.272608 
L 148.735776 187.272608 
" style="fill:none;stroke:#000000;stroke-linecap:square;stroke-linejoin:miter;stroke-width:0.8;"/>
   </g>
   <g id="patch_31">
    <path d="M 33.2875 112.293297 
L 148.735776 112.293297 
" style="fill:none;stroke:#000000;stroke-linecap:square;stroke-linejoin:miter;stroke-width:0.8;"/>
   </g>
   <g id="text_36">
    <!-- Food Behaviour -->
    <defs>
     <path d="M 9.8125 72.90625 
L 51.703125 72.90625 
L 51.703125 64.59375 
L 19.671875 64.59375 
L 19.671875 43.109375 
L 48.578125 43.109375 
L 48.578125 34.8125 
L 19.671875 34.8125 
L 19.671875 0 
L 9.8125 0 
z
" id="DejaVuSans-46"/>
    </defs>
    <g transform="translate(44.058825 106.293297)scale(0.12 -0.12)">
     <use xlink:href="#DejaVuSans-46"/>
     <use x="57.472656" xlink:href="#DejaVuSans-6f"/>
     <use x="118.654297" xlink:href="#DejaVuSans-6f"/>
     <use x="179.835938" xlink:href="#DejaVuSans-64"/>
     <use x="243.3125" xlink:href="#DejaVuSans-20"/>
     <use x="275.099609" xlink:href="#DejaVuSans-42"/>
     <use x="343.703125" xlink:href="#DejaVuSans-65"/>
     <use x="405.226562" xlink:href="#DejaVuSans-68"/>
     <use x="468.605469" xlink:href="#DejaVuSans-61"/>
     <use x="529.884766" xlink:href="#DejaVuSans-76"/>
     <use x="589.064453" xlink:href="#DejaVuSans-69"/>
     <use x="616.847656" xlink:href="#DejaVuSans-6f"/>
     <use x="678.029297" xlink:href="#DejaVuSans-75"/>
     <use x="741.408203" xlink:href="#DejaVuSans-72"/>
    </g>
   </g>
  </g>
  <g id="axes_7">
   <g id="patch_32">
    <path d="M 171.825431 187.272608 
L 287.273707 187.272608 
L 287.273707 112.293297 
L 171.825431 112.293297 
z
" style="fill:#ffffff;"/>
   </g>
   <g id="matplotlib.axis_13">
    <g id="xtick_19">
     <g id="line2d_37">
      <g>
       <use style="stroke:#000000;stroke-width:0.8;" x="190.192202" xlink:href="#m174aedfc86" y="187.272608"/>
      </g>
     </g>
     <g id="text_37">
      <!-- 1990 -->
      <g transform="translate(177.467202 201.871045)scale(0.1 -0.1)">
       <use xlink:href="#DejaVuSans-31"/>
       <use x="63.623047" xlink:href="#DejaVuSans-39"/>
       <use x="127.246094" xlink:href="#DejaVuSans-39"/>
       <use x="190.869141" xlink:href="#DejaVuSans-30"/>
      </g>
     </g>
    </g>
    <g id="xtick_20">
     <g id="line2d_38">
      <g>
       <use style="stroke:#000000;stroke-width:0.8;" x="222.990008" xlink:href="#m174aedfc86" y="187.272608"/>
      </g>
     </g>
     <g id="text_38">
      <!-- 2000 -->
      <g transform="translate(210.265008 201.871045)scale(0.1 -0.1)">
       <use xlink:href="#DejaVuSans-32"/>
       <use x="63.623047" xlink:href="#DejaVuSans-30"/>
       <use x="127.246094" xlink:href="#DejaVuSans-30"/>
       <use x="190.869141" xlink:href="#DejaVuSans-30"/>
      </g>
     </g>
    </g>
    <g id="xtick_21">
     <g id="line2d_39">
      <g>
       <use style="stroke:#000000;stroke-width:0.8;" x="255.787813" xlink:href="#m174aedfc86" y="187.272608"/>
      </g>
     </g>
     <g id="text_39">
      <!-- 2010 -->
      <g transform="translate(243.062813 201.871045)scale(0.1 -0.1)">
       <use xlink:href="#DejaVuSans-32"/>
       <use x="63.623047" xlink:href="#DejaVuSans-30"/>
       <use x="127.246094" xlink:href="#DejaVuSans-31"/>
       <use x="190.869141" xlink:href="#DejaVuSans-30"/>
      </g>
     </g>
    </g>
   </g>
   <g id="matplotlib.axis_14">
    <g id="ytick_13">
     <g id="line2d_40">
      <g>
       <use style="stroke:#000000;stroke-width:0.8;" x="171.825431" xlink:href="#md1b2d62028" y="183.942092"/>
      </g>
     </g>
     <g id="text_40">
      <!-- 0 -->
      <g transform="translate(158.462931 187.74131)scale(0.1 -0.1)">
       <use xlink:href="#DejaVuSans-30"/>
      </g>
     </g>
    </g>
    <g id="ytick_14">
     <g id="line2d_41">
      <g>
       <use style="stroke:#000000;stroke-width:0.8;" x="171.825431" xlink:href="#md1b2d62028" y="145.124888"/>
      </g>
     </g>
     <g id="text_41">
      <!-- 500 -->
      <g transform="translate(145.737931 148.924107)scale(0.1 -0.1)">
       <use xlink:href="#DejaVuSans-35"/>
       <use x="63.623047" xlink:href="#DejaVuSans-30"/>
       <use x="127.246094" xlink:href="#DejaVuSans-30"/>
      </g>
     </g>
    </g>
   </g>
   <g id="line2d_42">
    <path clip-path="url(#pef77f4e764)" d="M 190.192202 183.864457 
L 193.471983 183.709188 
L 196.751763 183.631554 
L 200.031544 183.786823 
L 203.311324 183.709188 
L 206.591105 183.709188 
L 209.870886 183.709188 
L 213.150666 183.786823 
L 219.710227 183.243382 
L 222.990008 183.165748 
L 226.269788 183.55392 
L 229.549569 183.321016 
L 232.82935 183.55392 
L 236.10913 182.85521 
L 239.388911 183.55392 
L 242.668691 183.321016 
L 245.948472 182.622307 
L 249.228252 182.85521 
L 252.508033 181.224887 
L 255.787813 180.991984 
L 259.067594 180.603812 
L 262.347375 180.138006 
L 265.627155 178.197146 
L 268.906936 176.489189 
L 272.186716 175.169404 
L 275.466497 173.616716 
L 278.746277 172.918006 
L 282.026058 171.442952 
" style="fill:none;stroke:#1f77b4;stroke-linecap:square;stroke-width:1.5;"/>
   </g>
   <g id="patch_33">
    <path d="M 171.825431 187.272608 
L 171.825431 112.293297 
" style="fill:none;stroke:#000000;stroke-linecap:square;stroke-linejoin:miter;stroke-width:0.8;"/>
   </g>
   <g id="patch_34">
    <path d="M 287.273707 187.272608 
L 287.273707 112.293297 
" style="fill:none;stroke:#000000;stroke-linecap:square;stroke-linejoin:miter;stroke-width:0.8;"/>
   </g>
   <g id="patch_35">
    <path d="M 171.825431 187.272608 
L 287.273707 187.272608 
" style="fill:none;stroke:#000000;stroke-linecap:square;stroke-linejoin:miter;stroke-width:0.8;"/>
   </g>
   <g id="patch_36">
    <path d="M 171.825431 112.293297 
L 287.273707 112.293297 
" style="fill:none;stroke:#000000;stroke-linecap:square;stroke-linejoin:miter;stroke-width:0.8;"/>
   </g>
   <g id="text_42">
    <!-- Indigenous Knowledge -->
    <defs>
     <path d="M 9.8125 72.90625 
L 19.671875 72.90625 
L 19.671875 0 
L 9.8125 0 
z
" id="DejaVuSans-49"/>
     <path d="M 9.8125 72.90625 
L 19.671875 72.90625 
L 19.671875 42.09375 
L 52.390625 72.90625 
L 65.09375 72.90625 
L 28.90625 38.921875 
L 67.671875 0 
L 54.6875 0 
L 19.671875 35.109375 
L 19.671875 0 
L 9.8125 0 
z
" id="DejaVuSans-4b"/>
     <path d="M 4.203125 54.6875 
L 13.1875 54.6875 
L 24.421875 12.015625 
L 35.59375 54.6875 
L 46.1875 54.6875 
L 57.421875 12.015625 
L 68.609375 54.6875 
L 77.59375 54.6875 
L 63.28125 0 
L 52.6875 0 
L 40.921875 44.828125 
L 29.109375 0 
L 18.5 0 
z
" id="DejaVuSans-77"/>
    </defs>
    <g transform="translate(161.707381 106.293297)scale(0.12 -0.12)">
     <use xlink:href="#DejaVuSans-49"/>
     <use x="29.492188" xlink:href="#DejaVuSans-6e"/>
     <use x="92.871094" xlink:href="#DejaVuSans-64"/>
     <use x="156.347656" xlink:href="#DejaVuSans-69"/>
     <use x="184.130859" xlink:href="#DejaVuSans-67"/>
     <use x="247.607422" xlink:href="#DejaVuSans-65"/>
     <use x="309.130859" xlink:href="#DejaVuSans-6e"/>
     <use x="372.509766" xlink:href="#DejaVuSans-6f"/>
     <use x="433.691406" xlink:href="#DejaVuSans-75"/>
     <use x="497.070312" xlink:href="#DejaVuSans-73"/>
     <use x="549.169922" xlink:href="#DejaVuSans-20"/>
     <use x="580.957031" xlink:href="#DejaVuSans-4b"/>
     <use x="646.533203" xlink:href="#DejaVuSans-6e"/>
     <use x="709.912109" xlink:href="#DejaVuSans-6f"/>
     <use x="771.09375" xlink:href="#DejaVuSans-77"/>
     <use x="852.880859" xlink:href="#DejaVuSans-6c"/>
     <use x="880.664062" xlink:href="#DejaVuSans-65"/>
     <use x="942.1875" xlink:href="#DejaVuSans-64"/>
     <use x="1005.664062" xlink:href="#DejaVuSans-67"/>
     <use x="1069.140625" xlink:href="#DejaVuSans-65"/>
    </g>
   </g>
  </g>
  <g id="axes_8">
   <g id="patch_37">
    <path d="M 310.363362 187.272608 
L 425.811638 187.272608 
L 425.811638 112.293297 
L 310.363362 112.293297 
z
" style="fill:#ffffff;"/>
   </g>
   <g id="matplotlib.axis_15">
    <g id="xtick_22">
     <g id="line2d_43">
      <g>
       <use style="stroke:#000000;stroke-width:0.8;" x="328.730133" xlink:href="#m174aedfc86" y="187.272608"/>
      </g>
     </g>
     <g id="text_43">
      <!-- 1990 -->
      <g transform="translate(316.005133 201.871045)scale(0.1 -0.1)">
       <use xlink:href="#DejaVuSans-31"/>
       <use x="63.623047" xlink:href="#DejaVuSans-39"/>
       <use x="127.246094" xlink:href="#DejaVuSans-39"/>
       <use x="190.869141" xlink:href="#DejaVuSans-30"/>
      </g>
     </g>
    </g>
    <g id="xtick_23">
     <g id="line2d_44">
      <g>
       <use style="stroke:#000000;stroke-width:0.8;" x="361.527939" xlink:href="#m174aedfc86" y="187.272608"/>
      </g>
     </g>
     <g id="text_44">
      <!-- 2000 -->
      <g transform="translate(348.802939 201.871045)scale(0.1 -0.1)">
       <use xlink:href="#DejaVuSans-32"/>
       <use x="63.623047" xlink:href="#DejaVuSans-30"/>
       <use x="127.246094" xlink:href="#DejaVuSans-30"/>
       <use x="190.869141" xlink:href="#DejaVuSans-30"/>
      </g>
     </g>
    </g>
    <g id="xtick_24">
     <g id="line2d_45">
      <g>
       <use style="stroke:#000000;stroke-width:0.8;" x="394.325745" xlink:href="#m174aedfc86" y="187.272608"/>
      </g>
     </g>
     <g id="text_45">
      <!-- 2010 -->
      <g transform="translate(381.600745 201.871045)scale(0.1 -0.1)">
       <use xlink:href="#DejaVuSans-32"/>
       <use x="63.623047" xlink:href="#DejaVuSans-30"/>
       <use x="127.246094" xlink:href="#DejaVuSans-31"/>
       <use x="190.869141" xlink:href="#DejaVuSans-30"/>
      </g>
     </g>
    </g>
   </g>
   <g id="matplotlib.axis_16">
    <g id="ytick_15">
     <g id="line2d_46">
      <g>
       <use style="stroke:#000000;stroke-width:0.8;" x="310.363362" xlink:href="#md1b2d62028" y="183.942092"/>
      </g>
     </g>
     <g id="text_46">
      <!-- 0 -->
      <g transform="translate(297.000862 187.74131)scale(0.1 -0.1)">
       <use xlink:href="#DejaVuSans-30"/>
      </g>
     </g>
    </g>
    <g id="ytick_16">
     <g id="line2d_47">
      <g>
       <use style="stroke:#000000;stroke-width:0.8;" x="310.363362" xlink:href="#md1b2d62028" y="145.124888"/>
      </g>
     </g>
     <g id="text_47">
      <!-- 500 -->
      <g transform="translate(284.275862 148.924107)scale(0.1 -0.1)">
       <use xlink:href="#DejaVuSans-35"/>
       <use x="63.623047" xlink:href="#DejaVuSans-30"/>
       <use x="127.246094" xlink:href="#DejaVuSans-30"/>
      </g>
     </g>
    </g>
   </g>
   <g id="line2d_48">
    <path clip-path="url(#p617f29af62)" d="M 332.009914 183.786823 
L 335.289694 183.786823 
L 338.569475 183.864457 
L 341.849255 183.864457 
L 345.129036 183.709188 
L 348.408817 183.786823 
L 351.688597 183.786823 
L 354.968378 183.55392 
L 358.248158 183.321016 
L 361.527939 183.631554 
L 364.807719 183.165748 
L 368.0875 183.165748 
L 371.367281 183.55392 
L 374.647061 183.165748 
L 377.926842 182.932844 
L 381.206622 183.088113 
L 384.486403 182.777576 
L 387.766183 182.932844 
L 391.045964 182.234135 
L 394.325745 180.603812 
L 397.605525 180.060371 
L 400.885306 180.603812 
L 404.165086 177.808974 
L 407.444867 176.877361 
L 410.724647 172.840371 
L 414.004428 173.771984 
L 417.284208 170.977146 
L 420.563989 167.17306 
" style="fill:none;stroke:#1f77b4;stroke-linecap:square;stroke-width:1.5;"/>
   </g>
   <g id="patch_38">
    <path d="M 310.363362 187.272608 
L 310.363362 112.293297 
" style="fill:none;stroke:#000000;stroke-linecap:square;stroke-linejoin:miter;stroke-width:0.8;"/>
   </g>
   <g id="patch_39">
    <path d="M 425.811638 187.272608 
L 425.811638 112.293297 
" style="fill:none;stroke:#000000;stroke-linecap:square;stroke-linejoin:miter;stroke-width:0.8;"/>
   </g>
   <g id="patch_40">
    <path d="M 310.363362 187.272608 
L 425.811638 187.272608 
" style="fill:none;stroke:#000000;stroke-linecap:square;stroke-linejoin:miter;stroke-width:0.8;"/>
   </g>
   <g id="patch_41">
    <path d="M 310.363362 112.293297 
L 425.811638 112.293297 
" style="fill:none;stroke:#000000;stroke-linecap:square;stroke-linejoin:miter;stroke-width:0.8;"/>
   </g>
   <g id="text_48">
    <!-- Bottom-up drivers -->
    <g transform="translate(313.61875 106.293297)scale(0.12 -0.12)">
     <use xlink:href="#DejaVuSans-42"/>
     <use x="68.603516" xlink:href="#DejaVuSans-6f"/>
     <use x="129.785156" xlink:href="#DejaVuSans-74"/>
     <use x="168.994141" xlink:href="#DejaVuSans-74"/>
     <use x="208.203125" xlink:href="#DejaVuSans-6f"/>
     <use x="269.384766" xlink:href="#DejaVuSans-6d"/>
     <use x="366.796875" xlink:href="#DejaVuSans-2d"/>
     <use x="402.880859" xlink:href="#DejaVuSans-75"/>
     <use x="466.259766" xlink:href="#DejaVuSans-70"/>
     <use x="529.736328" xlink:href="#DejaVuSans-20"/>
     <use x="561.523438" xlink:href="#DejaVuSans-64"/>
     <use x="625" xlink:href="#DejaVuSans-72"/>
     <use x="666.113281" xlink:href="#DejaVuSans-69"/>
     <use x="693.896484" xlink:href="#DejaVuSans-76"/>
     <use x="753.076172" xlink:href="#DejaVuSans-65"/>
     <use x="814.599609" xlink:href="#DejaVuSans-72"/>
     <use x="855.712891" xlink:href="#DejaVuSans-73"/>
    </g>
   </g>
  </g>
  <g id="axes_9">
   <g id="patch_42">
    <path d="M 448.901293 187.272608 
L 564.349569 187.272608 
L 564.349569 112.293297 
L 448.901293 112.293297 
z
" style="fill:#ffffff;"/>
   </g>
   <g id="matplotlib.axis_17">
    <g id="xtick_25">
     <g id="line2d_49">
      <g>
       <use style="stroke:#000000;stroke-width:0.8;" x="467.268064" xlink:href="#m174aedfc86" y="187.272608"/>
      </g>
     </g>
     <g id="text_49">
      <!-- 1990 -->
      <g transform="translate(454.543064 201.871045)scale(0.1 -0.1)">
       <use xlink:href="#DejaVuSans-31"/>
       <use x="63.623047" xlink:href="#DejaVuSans-39"/>
       <use x="127.246094" xlink:href="#DejaVuSans-39"/>
       <use x="190.869141" xlink:href="#DejaVuSans-30"/>
      </g>
     </g>
    </g>
    <g id="xtick_26">
     <g id="line2d_50">
      <g>
       <use style="stroke:#000000;stroke-width:0.8;" x="500.06587" xlink:href="#m174aedfc86" y="187.272608"/>
      </g>
     </g>
     <g id="text_50">
      <!-- 2000 -->
      <g transform="translate(487.34087 201.871045)scale(0.1 -0.1)">
       <use xlink:href="#DejaVuSans-32"/>
       <use x="63.623047" xlink:href="#DejaVuSans-30"/>
       <use x="127.246094" xlink:href="#DejaVuSans-30"/>
       <use x="190.869141" xlink:href="#DejaVuSans-30"/>
      </g>
     </g>
    </g>
    <g id="xtick_27">
     <g id="line2d_51">
      <g>
       <use style="stroke:#000000;stroke-width:0.8;" x="532.863676" xlink:href="#m174aedfc86" y="187.272608"/>
      </g>
     </g>
     <g id="text_51">
      <!-- 2010 -->
      <g transform="translate(520.138676 201.871045)scale(0.1 -0.1)">
       <use xlink:href="#DejaVuSans-32"/>
       <use x="63.623047" xlink:href="#DejaVuSans-30"/>
       <use x="127.246094" xlink:href="#DejaVuSans-31"/>
       <use x="190.869141" xlink:href="#DejaVuSans-30"/>
      </g>
     </g>
    </g>
   </g>
   <g id="matplotlib.axis_18">
    <g id="ytick_17">
     <g id="line2d_52">
      <g>
       <use style="stroke:#000000;stroke-width:0.8;" x="448.901293" xlink:href="#md1b2d62028" y="183.942092"/>
      </g>
     </g>
     <g id="text_52">
      <!-- 0 -->
      <g transform="translate(435.538793 187.74131)scale(0.1 -0.1)">
       <use xlink:href="#DejaVuSans-30"/>
      </g>
     </g>
    </g>
    <g id="ytick_18">
     <g id="line2d_53">
      <g>
       <use style="stroke:#000000;stroke-width:0.8;" x="448.901293" xlink:href="#md1b2d62028" y="145.124888"/>
      </g>
     </g>
     <g id="text_53">
      <!-- 500 -->
      <g transform="translate(422.813793 148.924107)scale(0.1 -0.1)">
       <use xlink:href="#DejaVuSans-35"/>
       <use x="63.623047" xlink:href="#DejaVuSans-30"/>
       <use x="127.246094" xlink:href="#DejaVuSans-30"/>
      </g>
     </g>
    </g>
   </g>
   <g id="line2d_54">
    <path clip-path="url(#p37284c7394)" d="M 454.148942 183.864457 
L 467.268064 183.864457 
L 473.827625 183.55392 
L 477.107406 183.709188 
L 480.387187 183.398651 
L 483.666967 183.786823 
L 486.946748 183.398651 
L 490.226528 183.631554 
L 493.506309 183.709188 
L 496.786089 183.786823 
L 500.06587 183.243382 
L 503.34565 183.631554 
L 506.625431 183.476285 
L 509.905212 183.321016 
L 513.184992 183.476285 
L 516.464773 182.777576 
L 519.744553 182.777576 
L 523.024334 182.777576 
L 526.304114 182.078866 
L 529.583895 181.768328 
L 532.863676 181.069619 
L 536.143456 180.21564 
L 539.423237 179.905103 
L 542.703017 172.685103 
L 545.982798 170.588974 
L 549.262578 168.027038 
L 552.542359 163.757146 
L 555.822139 157.235856 
L 559.10192 160.496501 
" style="fill:none;stroke:#1f77b4;stroke-linecap:square;stroke-width:1.5;"/>
   </g>
   <g id="patch_43">
    <path d="M 448.901293 187.272608 
L 448.901293 112.293297 
" style="fill:none;stroke:#000000;stroke-linecap:square;stroke-linejoin:miter;stroke-width:0.8;"/>
   </g>
   <g id="patch_44">
    <path d="M 564.349569 187.272608 
L 564.349569 112.293297 
" style="fill:none;stroke:#000000;stroke-linecap:square;stroke-linejoin:miter;stroke-width:0.8;"/>
   </g>
   <g id="patch_45">
    <path d="M 448.901293 187.272608 
L 564.349569 187.272608 
" style="fill:none;stroke:#000000;stroke-linecap:square;stroke-linejoin:miter;stroke-width:0.8;"/>
   </g>
   <g id="patch_46">
    <path d="M 448.901293 112.293297 
L 564.349569 112.293297 
" style="fill:none;stroke:#000000;stroke-linecap:square;stroke-linejoin:miter;stroke-width:0.8;"/>
   </g>
   <g id="text_54">
    <!-- Building Demand Typologies -->
    <defs>
     <path d="M 19.671875 64.796875 
L 19.671875 8.109375 
L 31.59375 8.109375 
Q 46.6875 8.109375 53.6875 14.9375 
Q 60.6875 21.78125 60.6875 36.53125 
Q 60.6875 51.171875 53.6875 57.984375 
Q 46.6875 64.796875 31.59375 64.796875 
z
M 9.8125 72.90625 
L 30.078125 72.90625 
Q 51.265625 72.90625 61.171875 64.09375 
Q 71.09375 55.28125 71.09375 36.53125 
Q 71.09375 17.671875 61.125 8.828125 
Q 51.171875 0 30.078125 0 
L 9.8125 0 
z
" id="DejaVuSans-44"/>
     <path d="M -0.296875 72.90625 
L 61.375 72.90625 
L 61.375 64.59375 
L 35.5 64.59375 
L 35.5 0 
L 25.59375 0 
L 25.59375 64.59375 
L -0.296875 64.59375 
z
" id="DejaVuSans-54"/>
    </defs>
    <g transform="translate(420.712931 106.293297)scale(0.12 -0.12)">
     <use xlink:href="#DejaVuSans-42"/>
     <use x="68.603516" xlink:href="#DejaVuSans-75"/>
     <use x="131.982422" xlink:href="#DejaVuSans-69"/>
     <use x="159.765625" xlink:href="#DejaVuSans-6c"/>
     <use x="187.548828" xlink:href="#DejaVuSans-64"/>
     <use x="251.025391" xlink:href="#DejaVuSans-69"/>
     <use x="278.808594" xlink:href="#DejaVuSans-6e"/>
     <use x="342.1875" xlink:href="#DejaVuSans-67"/>
     <use x="405.664062" xlink:href="#DejaVuSans-20"/>
     <use x="437.451172" xlink:href="#DejaVuSans-44"/>
     <use x="514.453125" xlink:href="#DejaVuSans-65"/>
     <use x="575.976562" xlink:href="#DejaVuSans-6d"/>
     <use x="673.388672" xlink:href="#DejaVuSans-61"/>
     <use x="734.667969" xlink:href="#DejaVuSans-6e"/>
     <use x="798.046875" xlink:href="#DejaVuSans-64"/>
     <use x="861.523438" xlink:href="#DejaVuSans-20"/>
     <use x="893.310547" xlink:href="#DejaVuSans-54"/>
     <use x="954.160156" xlink:href="#DejaVuSans-79"/>
     <use x="1013.339844" xlink:href="#DejaVuSans-70"/>
     <use x="1076.816406" xlink:href="#DejaVuSans-6f"/>
     <use x="1137.998047" xlink:href="#DejaVuSans-6c"/>
     <use x="1165.78125" xlink:href="#DejaVuSans-6f"/>
     <use x="1226.962891" xlink:href="#DejaVuSans-67"/>
     <use x="1290.439453" xlink:href="#DejaVuSans-69"/>
     <use x="1318.222656" xlink:href="#DejaVuSans-65"/>
     <use x="1379.746094" xlink:href="#DejaVuSans-73"/>
    </g>
   </g>
  </g>
  <g id="axes_10">
   <g id="patch_47">
    <path d="M 587.439224 187.272608 
L 702.8875 187.272608 
L 702.8875 112.293297 
L 587.439224 112.293297 
z
" style="fill:#ffffff;"/>
   </g>
   <g id="matplotlib.axis_19">
    <g id="xtick_28">
     <g id="line2d_55">
      <g>
       <use style="stroke:#000000;stroke-width:0.8;" x="605.805995" xlink:href="#m174aedfc86" y="187.272608"/>
      </g>
     </g>
     <g id="text_55">
      <!-- 1990 -->
      <g transform="translate(593.080995 201.871045)scale(0.1 -0.1)">
       <use xlink:href="#DejaVuSans-31"/>
       <use x="63.623047" xlink:href="#DejaVuSans-39"/>
       <use x="127.246094" xlink:href="#DejaVuSans-39"/>
       <use x="190.869141" xlink:href="#DejaVuSans-30"/>
      </g>
     </g>
    </g>
    <g id="xtick_29">
     <g id="line2d_56">
      <g>
       <use style="stroke:#000000;stroke-width:0.8;" x="638.603801" xlink:href="#m174aedfc86" y="187.272608"/>
      </g>
     </g>
     <g id="text_56">
      <!-- 2000 -->
      <g transform="translate(625.878801 201.871045)scale(0.1 -0.1)">
       <use xlink:href="#DejaVuSans-32"/>
       <use x="63.623047" xlink:href="#DejaVuSans-30"/>
       <use x="127.246094" xlink:href="#DejaVuSans-30"/>
       <use x="190.869141" xlink:href="#DejaVuSans-30"/>
      </g>
     </g>
    </g>
    <g id="xtick_30">
     <g id="line2d_57">
      <g>
       <use style="stroke:#000000;stroke-width:0.8;" x="671.401607" xlink:href="#m174aedfc86" y="187.272608"/>
      </g>
     </g>
     <g id="text_57">
      <!-- 2010 -->
      <g transform="translate(658.676607 201.871045)scale(0.1 -0.1)">
       <use xlink:href="#DejaVuSans-32"/>
       <use x="63.623047" xlink:href="#DejaVuSans-30"/>
       <use x="127.246094" xlink:href="#DejaVuSans-31"/>
       <use x="190.869141" xlink:href="#DejaVuSans-30"/>
      </g>
     </g>
    </g>
   </g>
   <g id="matplotlib.axis_20">
    <g id="ytick_19">
     <g id="line2d_58">
      <g>
       <use style="stroke:#000000;stroke-width:0.8;" x="587.439224" xlink:href="#md1b2d62028" y="183.942092"/>
      </g>
     </g>
     <g id="text_58">
      <!-- 0 -->
      <g transform="translate(574.076724 187.74131)scale(0.1 -0.1)">
       <use xlink:href="#DejaVuSans-30"/>
      </g>
     </g>
    </g>
    <g id="ytick_20">
     <g id="line2d_59">
      <g>
       <use style="stroke:#000000;stroke-width:0.8;" x="587.439224" xlink:href="#md1b2d62028" y="145.124888"/>
      </g>
     </g>
     <g id="text_59">
      <!-- 500 -->
      <g transform="translate(561.351724 148.924107)scale(0.1 -0.1)">
       <use xlink:href="#DejaVuSans-35"/>
       <use x="63.623047" xlink:href="#DejaVuSans-30"/>
       <use x="127.246094" xlink:href="#DejaVuSans-30"/>
      </g>
     </g>
    </g>
   </g>
   <g id="line2d_60">
    <path clip-path="url(#p53f0e54aed)" d="M 605.805995 183.864457 
L 609.085776 183.709188 
L 615.645337 183.631554 
L 618.925118 183.631554 
L 622.204898 183.55392 
L 625.484679 183.398651 
L 628.764459 183.321016 
L 632.04424 183.321016 
L 635.32402 183.476285 
L 638.603801 183.321016 
L 641.883582 183.010479 
L 645.163362 182.699941 
L 648.443143 182.932844 
L 651.722923 182.777576 
L 655.002704 183.321016 
L 658.282484 182.389404 
L 661.562265 181.768328 
L 664.842045 180.759081 
L 668.121826 180.759081 
L 671.401607 179.361662 
L 674.681387 178.740586 
L 677.961168 178.507683 
L 681.240948 175.712845 
L 684.520729 173.073275 
L 687.800509 168.881017 
L 691.08029 165.930909 
L 694.360071 162.514995 
L 697.639851 156.148974 
" style="fill:none;stroke:#1f77b4;stroke-linecap:square;stroke-width:1.5;"/>
   </g>
   <g id="patch_48">
    <path d="M 587.439224 187.272608 
L 587.439224 112.293297 
" style="fill:none;stroke:#000000;stroke-linecap:square;stroke-linejoin:miter;stroke-width:0.8;"/>
   </g>
   <g id="patch_49">
    <path d="M 702.8875 187.272608 
L 702.8875 112.293297 
" style="fill:none;stroke:#000000;stroke-linecap:square;stroke-linejoin:miter;stroke-width:0.8;"/>
   </g>
   <g id="patch_50">
    <path d="M 587.439224 187.272608 
L 702.8875 187.272608 
" style="fill:none;stroke:#000000;stroke-linecap:square;stroke-linejoin:miter;stroke-width:0.8;"/>
   </g>
   <g id="patch_51">
    <path d="M 587.439224 112.293297 
L 702.8875 112.293297 
" style="fill:none;stroke:#000000;stroke-linecap:square;stroke-linejoin:miter;stroke-width:0.8;"/>
   </g>
   <g id="text_60">
    <!-- SDG Diets -->
    <g transform="translate(614.7218 106.293297)scale(0.12 -0.12)">
     <use xlink:href="#DejaVuSans-53"/>
     <use x="63.476562" xlink:href="#DejaVuSans-44"/>
     <use x="140.478516" xlink:href="#DejaVuSans-47"/>
     <use x="217.96875" xlink:href="#DejaVuSans-20"/>
     <use x="249.755859" xlink:href="#DejaVuSans-44"/>
     <use x="326.757812" xlink:href="#DejaVuSans-69"/>
     <use x="354.541016" xlink:href="#DejaVuSans-65"/>
     <use x="416.064453" xlink:href="#DejaVuSans-74"/>
     <use x="455.273438" xlink:href="#DejaVuSans-73"/>
    </g>
   </g>
  </g>
  <g id="axes_11">
   <g id="patch_52">
    <path d="M 33.2875 277.24778 
L 148.735776 277.24778 
L 148.735776 202.26847 
L 33.2875 202.26847 
z
" style="fill:#ffffff;"/>
   </g>
   <g id="matplotlib.axis_21">
    <g id="xtick_31">
     <g id="line2d_61">
      <g>
       <use style="stroke:#000000;stroke-width:0.8;" x="51.654271" xlink:href="#m174aedfc86" y="277.24778"/>
      </g>
     </g>
     <g id="text_61">
      <!-- 1990 -->
      <g transform="translate(38.929271 291.846218)scale(0.1 -0.1)">
       <use xlink:href="#DejaVuSans-31"/>
       <use x="63.623047" xlink:href="#DejaVuSans-39"/>
       <use x="127.246094" xlink:href="#DejaVuSans-39"/>
       <use x="190.869141" xlink:href="#DejaVuSans-30"/>
      </g>
     </g>
    </g>
    <g id="xtick_32">
     <g id="line2d_62">
      <g>
       <use style="stroke:#000000;stroke-width:0.8;" x="84.452077" xlink:href="#m174aedfc86" y="277.24778"/>
      </g>
     </g>
     <g id="text_62">
      <!-- 2000 -->
      <g transform="translate(71.727077 291.846218)scale(0.1 -0.1)">
       <use xlink:href="#DejaVuSans-32"/>
       <use x="63.623047" xlink:href="#DejaVuSans-30"/>
       <use x="127.246094" xlink:href="#DejaVuSans-30"/>
       <use x="190.869141" xlink:href="#DejaVuSans-30"/>
      </g>
     </g>
    </g>
    <g id="xtick_33">
     <g id="line2d_63">
      <g>
       <use style="stroke:#000000;stroke-width:0.8;" x="117.249882" xlink:href="#m174aedfc86" y="277.24778"/>
      </g>
     </g>
     <g id="text_63">
      <!-- 2010 -->
      <g transform="translate(104.524882 291.846218)scale(0.1 -0.1)">
       <use xlink:href="#DejaVuSans-32"/>
       <use x="63.623047" xlink:href="#DejaVuSans-30"/>
       <use x="127.246094" xlink:href="#DejaVuSans-31"/>
       <use x="190.869141" xlink:href="#DejaVuSans-30"/>
      </g>
     </g>
    </g>
   </g>
   <g id="matplotlib.axis_22">
    <g id="ytick_21">
     <g id="line2d_64">
      <g>
       <use style="stroke:#000000;stroke-width:0.8;" x="33.2875" xlink:href="#md1b2d62028" y="273.917264"/>
      </g>
     </g>
     <g id="text_64">
      <!-- 0 -->
      <g transform="translate(19.925 277.716483)scale(0.1 -0.1)">
       <use xlink:href="#DejaVuSans-30"/>
      </g>
     </g>
    </g>
    <g id="ytick_22">
     <g id="line2d_65">
      <g>
       <use style="stroke:#000000;stroke-width:0.8;" x="33.2875" xlink:href="#md1b2d62028" y="235.100061"/>
      </g>
     </g>
     <g id="text_65">
      <!-- 500 -->
      <g transform="translate(7.2 238.899279)scale(0.1 -0.1)">
       <use xlink:href="#DejaVuSans-35"/>
       <use x="63.623047" xlink:href="#DejaVuSans-30"/>
       <use x="127.246094" xlink:href="#DejaVuSans-30"/>
      </g>
     </g>
    </g>
   </g>
   <g id="line2d_66">
    <path clip-path="url(#p3d8857be9a)" d="M 54.934052 273.684361 
L 58.213832 273.83963 
L 61.493613 273.218554 
L 64.773393 273.451458 
L 68.053174 273.218554 
L 71.332955 273.451458 
L 74.612735 273.529092 
L 77.892516 273.451458 
L 81.172296 273.451458 
L 84.452077 273.296189 
L 87.731857 272.830382 
L 91.011638 273.373823 
L 94.291418 273.218554 
L 97.571199 272.675114 
L 100.85098 272.985651 
L 104.13076 272.519845 
L 107.410541 270.889522 
L 110.690321 270.656619 
L 113.970102 271.432963 
L 117.249882 268.948662 
L 120.529663 268.793393 
L 123.809444 265.998555 
L 127.089224 260.486512 
L 130.369005 259.39963 
L 133.648785 260.020705 
L 136.928566 255.207372 
L 140.208346 251.48092 
L 143.488127 252.955974 
" style="fill:none;stroke:#1f77b4;stroke-linecap:square;stroke-width:1.5;"/>
   </g>
   <g id="patch_53">
    <path d="M 33.2875 277.24778 
L 33.2875 202.26847 
" style="fill:none;stroke:#000000;stroke-linecap:square;stroke-linejoin:miter;stroke-width:0.8;"/>
   </g>
   <g id="patch_54">
    <path d="M 148.735776 277.24778 
L 148.735776 202.26847 
" style="fill:none;stroke:#000000;stroke-linecap:square;stroke-linejoin:miter;stroke-width:0.8;"/>
   </g>
   <g id="patch_55">
    <path d="M 33.2875 277.24778 
L 148.735776 277.24778 
" style="fill:none;stroke:#000000;stroke-linecap:square;stroke-linejoin:miter;stroke-width:0.8;"/>
   </g>
   <g id="patch_56">
    <path d="M 33.2875 202.26847 
L 148.735776 202.26847 
" style="fill:none;stroke:#000000;stroke-linecap:square;stroke-linejoin:miter;stroke-width:0.8;"/>
   </g>
   <g id="text_66">
    <!-- Literature Survey (2) -->
    <defs>
     <path d="M 9.8125 72.90625 
L 19.671875 72.90625 
L 19.671875 8.296875 
L 55.171875 8.296875 
L 55.171875 0 
L 9.8125 0 
z
" id="DejaVuSans-4c"/>
    </defs>
    <g transform="translate(28.317263 196.26847)scale(0.12 -0.12)">
     <use xlink:href="#DejaVuSans-4c"/>
     <use x="55.712891" xlink:href="#DejaVuSans-69"/>
     <use x="83.496094" xlink:href="#DejaVuSans-74"/>
     <use x="122.705078" xlink:href="#DejaVuSans-65"/>
     <use x="184.228516" xlink:href="#DejaVuSans-72"/>
     <use x="225.341797" xlink:href="#DejaVuSans-61"/>
     <use x="286.621094" xlink:href="#DejaVuSans-74"/>
     <use x="325.830078" xlink:href="#DejaVuSans-75"/>
     <use x="389.208984" xlink:href="#DejaVuSans-72"/>
     <use x="430.291016" xlink:href="#DejaVuSans-65"/>
     <use x="491.814453" xlink:href="#DejaVuSans-20"/>
     <use x="523.601562" xlink:href="#DejaVuSans-53"/>
     <use x="587.078125" xlink:href="#DejaVuSans-75"/>
     <use x="650.457031" xlink:href="#DejaVuSans-72"/>
     <use x="691.570312" xlink:href="#DejaVuSans-76"/>
     <use x="750.75" xlink:href="#DejaVuSans-65"/>
     <use x="812.273438" xlink:href="#DejaVuSans-79"/>
     <use x="871.453125" xlink:href="#DejaVuSans-20"/>
     <use x="903.240234" xlink:href="#DejaVuSans-28"/>
     <use x="942.253906" xlink:href="#DejaVuSans-32"/>
     <use x="1005.876953" xlink:href="#DejaVuSans-29"/>
    </g>
   </g>
  </g>
  <g id="axes_12">
   <g id="patch_57">
    <path d="M 171.825431 277.24778 
L 287.273707 277.24778 
L 287.273707 202.26847 
L 171.825431 202.26847 
z
" style="fill:#ffffff;"/>
   </g>
   <g id="matplotlib.axis_23">
    <g id="xtick_34">
     <g id="line2d_67">
      <g>
       <use style="stroke:#000000;stroke-width:0.8;" x="190.192202" xlink:href="#m174aedfc86" y="277.24778"/>
      </g>
     </g>
     <g id="text_67">
      <!-- 1990 -->
      <g transform="translate(177.467202 291.846218)scale(0.1 -0.1)">
       <use xlink:href="#DejaVuSans-31"/>
       <use x="63.623047" xlink:href="#DejaVuSans-39"/>
       <use x="127.246094" xlink:href="#DejaVuSans-39"/>
       <use x="190.869141" xlink:href="#DejaVuSans-30"/>
      </g>
     </g>
    </g>
    <g id="xtick_35">
     <g id="line2d_68">
      <g>
       <use style="stroke:#000000;stroke-width:0.8;" x="222.990008" xlink:href="#m174aedfc86" y="277.24778"/>
      </g>
     </g>
     <g id="text_68">
      <!-- 2000 -->
      <g transform="translate(210.265008 291.846218)scale(0.1 -0.1)">
       <use xlink:href="#DejaVuSans-32"/>
       <use x="63.623047" xlink:href="#DejaVuSans-30"/>
       <use x="127.246094" xlink:href="#DejaVuSans-30"/>
       <use x="190.869141" xlink:href="#DejaVuSans-30"/>
      </g>
     </g>
    </g>
    <g id="xtick_36">
     <g id="line2d_69">
      <g>
       <use style="stroke:#000000;stroke-width:0.8;" x="255.787813" xlink:href="#m174aedfc86" y="277.24778"/>
      </g>
     </g>
     <g id="text_69">
      <!-- 2010 -->
      <g transform="translate(243.062813 291.846218)scale(0.1 -0.1)">
       <use xlink:href="#DejaVuSans-32"/>
       <use x="63.623047" xlink:href="#DejaVuSans-30"/>
       <use x="127.246094" xlink:href="#DejaVuSans-31"/>
       <use x="190.869141" xlink:href="#DejaVuSans-30"/>
      </g>
     </g>
    </g>
   </g>
   <g id="matplotlib.axis_24">
    <g id="ytick_23">
     <g id="line2d_70">
      <g>
       <use style="stroke:#000000;stroke-width:0.8;" x="171.825431" xlink:href="#md1b2d62028" y="273.917264"/>
      </g>
     </g>
     <g id="text_70">
      <!-- 0 -->
      <g transform="translate(158.462931 277.716483)scale(0.1 -0.1)">
       <use xlink:href="#DejaVuSans-30"/>
      </g>
     </g>
    </g>
    <g id="ytick_24">
     <g id="line2d_71">
      <g>
       <use style="stroke:#000000;stroke-width:0.8;" x="171.825431" xlink:href="#md1b2d62028" y="235.100061"/>
      </g>
     </g>
     <g id="text_71">
      <!-- 500 -->
      <g transform="translate(145.737931 238.899279)scale(0.1 -0.1)">
       <use xlink:href="#DejaVuSans-35"/>
       <use x="63.623047" xlink:href="#DejaVuSans-30"/>
       <use x="127.246094" xlink:href="#DejaVuSans-30"/>
      </g>
     </g>
    </g>
   </g>
   <g id="line2d_72">
    <path clip-path="url(#pe0b158862d)" d="M 186.912422 273.83963 
L 193.471983 273.296189 
L 196.751763 273.296189 
L 200.031544 273.684361 
L 203.311324 273.218554 
L 206.591105 273.218554 
L 209.870886 272.752748 
L 213.150666 272.054038 
L 216.430447 271.665866 
L 219.710227 271.821135 
L 222.990008 272.44221 
L 226.269788 271.821135 
L 229.549569 271.432963 
L 232.82935 269.957909 
L 236.10913 270.578985 
L 239.388911 269.569737 
L 242.668691 268.482856 
L 245.948472 268.405221 
L 249.228252 268.249952 
L 252.508033 265.92092 
L 255.787813 263.28135 
L 259.067594 262.893178 
L 262.347375 260.564146 
L 265.627155 260.020705 
L 268.906936 257.45877 
L 272.186716 250.471673 
L 275.466497 247.676835 
L 278.746277 244.416189 
L 282.026058 243.096405 
" style="fill:none;stroke:#1f77b4;stroke-linecap:square;stroke-width:1.5;"/>
   </g>
   <g id="patch_58">
    <path d="M 171.825431 277.24778 
L 171.825431 202.26847 
" style="fill:none;stroke:#000000;stroke-linecap:square;stroke-linejoin:miter;stroke-width:0.8;"/>
   </g>
   <g id="patch_59">
    <path d="M 287.273707 277.24778 
L 287.273707 202.26847 
" style="fill:none;stroke:#000000;stroke-linecap:square;stroke-linejoin:miter;stroke-width:0.8;"/>
   </g>
   <g id="patch_60">
    <path d="M 171.825431 277.24778 
L 287.273707 277.24778 
" style="fill:none;stroke:#000000;stroke-linecap:square;stroke-linejoin:miter;stroke-width:0.8;"/>
   </g>
   <g id="patch_61">
    <path d="M 171.825431 202.26847 
L 287.273707 202.26847 
" style="fill:none;stroke:#000000;stroke-linecap:square;stroke-linejoin:miter;stroke-width:0.8;"/>
   </g>
   <g id="text_72">
    <!-- Status -->
    <g transform="translate(210.431131 196.26847)scale(0.12 -0.12)">
     <use xlink:href="#DejaVuSans-53"/>
     <use x="63.476562" xlink:href="#DejaVuSans-74"/>
     <use x="102.685547" xlink:href="#DejaVuSans-61"/>
     <use x="163.964844" xlink:href="#DejaVuSans-74"/>
     <use x="203.173828" xlink:href="#DejaVuSans-75"/>
     <use x="266.552734" xlink:href="#DejaVuSans-73"/>
    </g>
   </g>
  </g>
  <g id="axes_13">
   <g id="patch_62">
    <path d="M 310.363362 277.24778 
L 425.811638 277.24778 
L 425.811638 202.26847 
L 310.363362 202.26847 
z
" style="fill:#ffffff;"/>
   </g>
   <g id="matplotlib.axis_25">
    <g id="xtick_37">
     <g id="line2d_73">
      <g>
       <use style="stroke:#000000;stroke-width:0.8;" x="328.730133" xlink:href="#m174aedfc86" y="277.24778"/>
      </g>
     </g>
     <g id="text_73">
      <!-- 1990 -->
      <g transform="translate(316.005133 291.846218)scale(0.1 -0.1)">
       <use xlink:href="#DejaVuSans-31"/>
       <use x="63.623047" xlink:href="#DejaVuSans-39"/>
       <use x="127.246094" xlink:href="#DejaVuSans-39"/>
       <use x="190.869141" xlink:href="#DejaVuSans-30"/>
      </g>
     </g>
    </g>
    <g id="xtick_38">
     <g id="line2d_74">
      <g>
       <use style="stroke:#000000;stroke-width:0.8;" x="361.527939" xlink:href="#m174aedfc86" y="277.24778"/>
      </g>
     </g>
     <g id="text_74">
      <!-- 2000 -->
      <g transform="translate(348.802939 291.846218)scale(0.1 -0.1)">
       <use xlink:href="#DejaVuSans-32"/>
       <use x="63.623047" xlink:href="#DejaVuSans-30"/>
       <use x="127.246094" xlink:href="#DejaVuSans-30"/>
       <use x="190.869141" xlink:href="#DejaVuSans-30"/>
      </g>
     </g>
    </g>
    <g id="xtick_39">
     <g id="line2d_75">
      <g>
       <use style="stroke:#000000;stroke-width:0.8;" x="394.325745" xlink:href="#m174aedfc86" y="277.24778"/>
      </g>
     </g>
     <g id="text_75">
      <!-- 2010 -->
      <g transform="translate(381.600745 291.846218)scale(0.1 -0.1)">
       <use xlink:href="#DejaVuSans-32"/>
       <use x="63.623047" xlink:href="#DejaVuSans-30"/>
       <use x="127.246094" xlink:href="#DejaVuSans-31"/>
       <use x="190.869141" xlink:href="#DejaVuSans-30"/>
      </g>
     </g>
    </g>
   </g>
   <g id="matplotlib.axis_26">
    <g id="ytick_25">
     <g id="line2d_76">
      <g>
       <use style="stroke:#000000;stroke-width:0.8;" x="310.363362" xlink:href="#md1b2d62028" y="273.917264"/>
      </g>
     </g>
     <g id="text_76">
      <!-- 0 -->
      <g transform="translate(297.000862 277.716483)scale(0.1 -0.1)">
       <use xlink:href="#DejaVuSans-30"/>
      </g>
     </g>
    </g>
    <g id="ytick_26">
     <g id="line2d_77">
      <g>
       <use style="stroke:#000000;stroke-width:0.8;" x="310.363362" xlink:href="#md1b2d62028" y="235.100061"/>
      </g>
     </g>
     <g id="text_77">
      <!-- 500 -->
      <g transform="translate(284.275862 238.899279)scale(0.1 -0.1)">
       <use xlink:href="#DejaVuSans-35"/>
       <use x="63.623047" xlink:href="#DejaVuSans-30"/>
       <use x="127.246094" xlink:href="#DejaVuSans-30"/>
      </g>
     </g>
    </g>
   </g>
   <g id="line2d_78">
    <path clip-path="url(#pdfa25ef386)" d="M 332.009914 273.296189 
L 335.289694 273.684361 
L 338.569475 273.451458 
L 341.849255 273.063286 
L 345.129036 272.286942 
L 348.408817 271.89877 
L 351.688597 271.976404 
L 354.968378 272.597479 
L 358.248158 271.122425 
L 361.527939 271.432963 
L 364.807719 271.277694 
L 368.0875 271.432963 
L 371.367281 270.811888 
L 374.647061 270.578985 
L 377.926842 270.190813 
L 381.206622 269.181565 
L 384.486403 267.240705 
L 387.766183 265.610383 
L 391.045964 263.048447 
L 394.325745 259.089092 
L 397.605525 254.508662 
L 400.885306 248.841351 
L 404.165086 250.161136 
L 407.444867 243.950383 
L 410.724647 238.43834 
L 414.004428 230.597265 
L 417.284208 224.308878 
L 420.563989 218.796835 
" style="fill:none;stroke:#1f77b4;stroke-linecap:square;stroke-width:1.5;"/>
   </g>
   <g id="patch_63">
    <path d="M 310.363362 277.24778 
L 310.363362 202.26847 
" style="fill:none;stroke:#000000;stroke-linecap:square;stroke-linejoin:miter;stroke-width:0.8;"/>
   </g>
   <g id="patch_64">
    <path d="M 425.811638 277.24778 
L 425.811638 202.26847 
" style="fill:none;stroke:#000000;stroke-linecap:square;stroke-linejoin:miter;stroke-width:0.8;"/>
   </g>
   <g id="patch_65">
    <path d="M 310.363362 277.24778 
L 425.811638 277.24778 
" style="fill:none;stroke:#000000;stroke-linecap:square;stroke-linejoin:miter;stroke-width:0.8;"/>
   </g>
   <g id="patch_66">
    <path d="M 310.363362 202.26847 
L 425.811638 202.26847 
" style="fill:none;stroke:#000000;stroke-linecap:square;stroke-linejoin:miter;stroke-width:0.8;"/>
   </g>
   <g id="text_78">
    <!-- Quantifying potential -->
    <defs>
     <path d="M 39.40625 66.21875 
Q 28.65625 66.21875 22.328125 58.203125 
Q 16.015625 50.203125 16.015625 36.375 
Q 16.015625 22.609375 22.328125 14.59375 
Q 28.65625 6.59375 39.40625 6.59375 
Q 50.140625 6.59375 56.421875 14.59375 
Q 62.703125 22.609375 62.703125 36.375 
Q 62.703125 50.203125 56.421875 58.203125 
Q 50.140625 66.21875 39.40625 66.21875 
z
M 53.21875 1.3125 
L 66.21875 -12.890625 
L 54.296875 -12.890625 
L 43.5 -1.21875 
Q 41.890625 -1.3125 41.03125 -1.359375 
Q 40.1875 -1.421875 39.40625 -1.421875 
Q 24.03125 -1.421875 14.8125 8.859375 
Q 5.609375 19.140625 5.609375 36.375 
Q 5.609375 53.65625 14.8125 63.9375 
Q 24.03125 74.21875 39.40625 74.21875 
Q 54.734375 74.21875 63.90625 63.9375 
Q 73.09375 53.65625 73.09375 36.375 
Q 73.09375 23.6875 67.984375 14.640625 
Q 62.890625 5.609375 53.21875 1.3125 
z
" id="DejaVuSans-51"/>
     <path d="M 37.109375 75.984375 
L 37.109375 68.5 
L 28.515625 68.5 
Q 23.6875 68.5 21.796875 66.546875 
Q 19.921875 64.59375 19.921875 59.515625 
L 19.921875 54.6875 
L 34.71875 54.6875 
L 34.71875 47.703125 
L 19.921875 47.703125 
L 19.921875 0 
L 10.890625 0 
L 10.890625 47.703125 
L 2.296875 47.703125 
L 2.296875 54.6875 
L 10.890625 54.6875 
L 10.890625 58.5 
Q 10.890625 67.625 15.140625 71.796875 
Q 19.390625 75.984375 28.609375 75.984375 
z
" id="DejaVuSans-66"/>
    </defs>
    <g transform="translate(304.525938 196.26847)scale(0.12 -0.12)">
     <use xlink:href="#DejaVuSans-51"/>
     <use x="78.710938" xlink:href="#DejaVuSans-75"/>
     <use x="142.089844" xlink:href="#DejaVuSans-61"/>
     <use x="203.369141" xlink:href="#DejaVuSans-6e"/>
     <use x="266.748047" xlink:href="#DejaVuSans-74"/>
     <use x="305.957031" xlink:href="#DejaVuSans-69"/>
     <use x="333.740234" xlink:href="#DejaVuSans-66"/>
     <use x="368.929688" xlink:href="#DejaVuSans-79"/>
     <use x="428.109375" xlink:href="#DejaVuSans-69"/>
     <use x="455.892578" xlink:href="#DejaVuSans-6e"/>
     <use x="519.271484" xlink:href="#DejaVuSans-67"/>
     <use x="582.748047" xlink:href="#DejaVuSans-20"/>
     <use x="614.535156" xlink:href="#DejaVuSans-70"/>
     <use x="678.011719" xlink:href="#DejaVuSans-6f"/>
     <use x="739.193359" xlink:href="#DejaVuSans-74"/>
     <use x="778.402344" xlink:href="#DejaVuSans-65"/>
     <use x="839.925781" xlink:href="#DejaVuSans-6e"/>
     <use x="903.304688" xlink:href="#DejaVuSans-74"/>
     <use x="942.513672" xlink:href="#DejaVuSans-69"/>
     <use x="970.296875" xlink:href="#DejaVuSans-61"/>
     <use x="1031.576172" xlink:href="#DejaVuSans-6c"/>
    </g>
   </g>
  </g>
  <g id="axes_14">
   <g id="patch_67">
    <path d="M 448.901293 277.24778 
L 564.349569 277.24778 
L 564.349569 202.26847 
L 448.901293 202.26847 
z
" style="fill:#ffffff;"/>
   </g>
   <g id="matplotlib.axis_27">
    <g id="xtick_40">
     <g id="line2d_79">
      <g>
       <use style="stroke:#000000;stroke-width:0.8;" x="467.268064" xlink:href="#m174aedfc86" y="277.24778"/>
      </g>
     </g>
     <g id="text_79">
      <!-- 1990 -->
      <g transform="translate(454.543064 291.846218)scale(0.1 -0.1)">
       <use xlink:href="#DejaVuSans-31"/>
       <use x="63.623047" xlink:href="#DejaVuSans-39"/>
       <use x="127.246094" xlink:href="#DejaVuSans-39"/>
       <use x="190.869141" xlink:href="#DejaVuSans-30"/>
      </g>
     </g>
    </g>
    <g id="xtick_41">
     <g id="line2d_80">
      <g>
       <use style="stroke:#000000;stroke-width:0.8;" x="500.06587" xlink:href="#m174aedfc86" y="277.24778"/>
      </g>
     </g>
     <g id="text_80">
      <!-- 2000 -->
      <g transform="translate(487.34087 291.846218)scale(0.1 -0.1)">
       <use xlink:href="#DejaVuSans-32"/>
       <use x="63.623047" xlink:href="#DejaVuSans-30"/>
       <use x="127.246094" xlink:href="#DejaVuSans-30"/>
       <use x="190.869141" xlink:href="#DejaVuSans-30"/>
      </g>
     </g>
    </g>
    <g id="xtick_42">
     <g id="line2d_81">
      <g>
       <use style="stroke:#000000;stroke-width:0.8;" x="532.863676" xlink:href="#m174aedfc86" y="277.24778"/>
      </g>
     </g>
     <g id="text_81">
      <!-- 2010 -->
      <g transform="translate(520.138676 291.846218)scale(0.1 -0.1)">
       <use xlink:href="#DejaVuSans-32"/>
       <use x="63.623047" xlink:href="#DejaVuSans-30"/>
       <use x="127.246094" xlink:href="#DejaVuSans-31"/>
       <use x="190.869141" xlink:href="#DejaVuSans-30"/>
      </g>
     </g>
    </g>
   </g>
   <g id="matplotlib.axis_28">
    <g id="ytick_27">
     <g id="line2d_82">
      <g>
       <use style="stroke:#000000;stroke-width:0.8;" x="448.901293" xlink:href="#md1b2d62028" y="273.917264"/>
      </g>
     </g>
     <g id="text_82">
      <!-- 0 -->
      <g transform="translate(435.538793 277.716483)scale(0.1 -0.1)">
       <use xlink:href="#DejaVuSans-30"/>
      </g>
     </g>
    </g>
    <g id="ytick_28">
     <g id="line2d_83">
      <g>
       <use style="stroke:#000000;stroke-width:0.8;" x="448.901293" xlink:href="#md1b2d62028" y="235.100061"/>
      </g>
     </g>
     <g id="text_83">
      <!-- 500 -->
      <g transform="translate(422.813793 238.899279)scale(0.1 -0.1)">
       <use xlink:href="#DejaVuSans-35"/>
       <use x="63.623047" xlink:href="#DejaVuSans-30"/>
       <use x="127.246094" xlink:href="#DejaVuSans-30"/>
      </g>
     </g>
    </g>
   </g>
   <g id="line2d_84">
    <path clip-path="url(#p0ffc41bec7)" d="M 467.268064 273.83963 
L 470.547845 273.063286 
L 473.827625 272.752748 
L 477.107406 272.209307 
L 480.387187 272.286942 
L 483.666967 272.519845 
L 486.946748 271.821135 
L 490.226528 271.20006 
L 493.506309 271.89877 
L 496.786089 271.355329 
L 500.06587 271.89877 
L 503.34565 271.432963 
L 506.625431 271.044791 
L 509.905212 270.346081 
L 513.184992 270.967157 
L 516.464773 269.414468 
L 519.744553 269.181565 
L 523.024334 266.61963 
L 526.304114 265.144576 
L 529.583895 265.222211 
L 532.863676 261.883931 
L 536.143456 261.495759 
L 539.423237 258.545652 
L 542.703017 249.617695 
L 545.982798 241.466082 
L 549.262578 236.419845 
L 552.542359 224.541781 
L 555.822139 213.983502 
L 559.10192 205.67662 
" style="fill:none;stroke:#1f77b4;stroke-linecap:square;stroke-width:1.5;"/>
   </g>
   <g id="patch_68">
    <path d="M 448.901293 277.24778 
L 448.901293 202.26847 
" style="fill:none;stroke:#000000;stroke-linecap:square;stroke-linejoin:miter;stroke-width:0.8;"/>
   </g>
   <g id="patch_69">
    <path d="M 564.349569 277.24778 
L 564.349569 202.26847 
" style="fill:none;stroke:#000000;stroke-linecap:square;stroke-linejoin:miter;stroke-width:0.8;"/>
   </g>
   <g id="patch_70">
    <path d="M 448.901293 277.24778 
L 564.349569 277.24778 
" style="fill:none;stroke:#000000;stroke-linecap:square;stroke-linejoin:miter;stroke-width:0.8;"/>
   </g>
   <g id="patch_71">
    <path d="M 448.901293 202.26847 
L 564.349569 202.26847 
" style="fill:none;stroke:#000000;stroke-linecap:square;stroke-linejoin:miter;stroke-width:0.8;"/>
   </g>
   <g id="text_84">
    <!-- Literature Survey -->
    <g transform="translate(454.337306 196.26847)scale(0.12 -0.12)">
     <use xlink:href="#DejaVuSans-4c"/>
     <use x="55.712891" xlink:href="#DejaVuSans-69"/>
     <use x="83.496094" xlink:href="#DejaVuSans-74"/>
     <use x="122.705078" xlink:href="#DejaVuSans-65"/>
     <use x="184.228516" xlink:href="#DejaVuSans-72"/>
     <use x="225.341797" xlink:href="#DejaVuSans-61"/>
     <use x="286.621094" xlink:href="#DejaVuSans-74"/>
     <use x="325.830078" xlink:href="#DejaVuSans-75"/>
     <use x="389.208984" xlink:href="#DejaVuSans-72"/>
     <use x="430.291016" xlink:href="#DejaVuSans-65"/>
     <use x="491.814453" xlink:href="#DejaVuSans-20"/>
     <use x="523.601562" xlink:href="#DejaVuSans-53"/>
     <use x="587.078125" xlink:href="#DejaVuSans-75"/>
     <use x="650.457031" xlink:href="#DejaVuSans-72"/>
     <use x="691.570312" xlink:href="#DejaVuSans-76"/>
     <use x="750.75" xlink:href="#DejaVuSans-65"/>
     <use x="812.273438" xlink:href="#DejaVuSans-79"/>
    </g>
   </g>
  </g>
 </g>
 <defs>
  <clipPath id="pf97d5ab24f">
   <rect height="74.97931" width="115.448276" x="33.2875" y="22.318125"/>
  </clipPath>
  <clipPath id="pa2cf633b99">
   <rect height="74.97931" width="115.448276" x="171.825431" y="22.318125"/>
  </clipPath>
  <clipPath id="p52c2caccca">
   <rect height="74.97931" width="115.448276" x="310.363362" y="22.318125"/>
  </clipPath>
  <clipPath id="p061b83c5b2">
   <rect height="74.97931" width="115.448276" x="448.901293" y="22.318125"/>
  </clipPath>
  <clipPath id="pa602a03630">
   <rect height="74.97931" width="115.448276" x="587.439224" y="22.318125"/>
  </clipPath>
  <clipPath id="p111c7f9e88">
   <rect height="74.97931" width="115.448276" x="33.2875" y="112.293297"/>
  </clipPath>
  <clipPath id="pef77f4e764">
   <rect height="74.97931" width="115.448276" x="171.825431" y="112.293297"/>
  </clipPath>
  <clipPath id="p617f29af62">
   <rect height="74.97931" width="115.448276" x="310.363362" y="112.293297"/>
  </clipPath>
  <clipPath id="p37284c7394">
   <rect height="74.97931" width="115.448276" x="448.901293" y="112.293297"/>
  </clipPath>
  <clipPath id="p53f0e54aed">
   <rect height="74.97931" width="115.448276" x="587.439224" y="112.293297"/>
  </clipPath>
  <clipPath id="p3d8857be9a">
   <rect height="74.97931" width="115.448276" x="33.2875" y="202.26847"/>
  </clipPath>
  <clipPath id="pe0b158862d">
   <rect height="74.97931" width="115.448276" x="171.825431" y="202.26847"/>
  </clipPath>
  <clipPath id="pdfa25ef386">
   <rect height="74.97931" width="115.448276" x="310.363362" y="202.26847"/>
  </clipPath>
  <clipPath id="p0ffc41bec7">
   <rect height="74.97931" width="115.448276" x="448.901293" y="202.26847"/>
  </clipPath>
 </defs>
</svg>
